<?xml version="1.0" encoding="utf-8"?><svg xmlns="http://www.w3.org/2000/svg" xmlns:xlink="http://www.w3.org/1999/xlink"><symbol viewBox="0 0 25 21" id="arrow-left" xmlns="http://www.w3.org/2000/svg"><path d="M8.778.563L.564 8.713a1.92 1.92 0 000 2.72l8.214 8.155a1.958 1.958 0 002.745 0 1.922 1.922 0 000-2.719l-4.805-4.767h15.414a2.012 2.012 0 100-4.027H6.69l4.834-4.792a1.92 1.92 0 000-2.718A1.953 1.953 0 008.778.563z"/></symbol><symbol viewBox="0 0 25 21" id="arrow-right" xmlns="http://www.w3.org/2000/svg"><path d="M15.369 19.587l8.213-8.15a1.92 1.92 0 000-2.72L15.37.563a1.958 1.958 0 00-2.746 0 1.922 1.922 0 000 2.719l4.806 4.767H2.014a2.012 2.012 0 100 4.027h15.444l-4.835 4.792a1.92 1.92 0 000 2.718 1.953 1.953 0 002.746.002z"/></symbol><symbol viewBox="0 0 21 24" id="arrows-down" xmlns="http://www.w3.org/2000/svg"><path d="M10.307 23.888c.398-.04.775-.2 1.078-.46l8.139-6.977a1.937 1.937 0 00-1.093-3.447 1.94 1.94 0 00-1.426.504l-6.88 5.899-6.88-5.9a1.94 1.94 0 00-2.78.17 1.937 1.937 0 00.26 2.774l8.14 6.977c.399.342.92.507 1.442.46zm0-13c.398-.04.775-.2 1.078-.46l8.139-6.977a1.937 1.937 0 10-2.52-2.943l-6.879 5.898L3.245.508a1.94 1.94 0 00-2.78.17 1.937 1.937 0 00.26 2.774l8.14 6.976c.399.342.92.507 1.442.46z"/></symbol><symbol viewBox="0 0 149 350" id="big-map-marker" xmlns="http://www.w3.org/2000/svg"><g opacity=".03"><path fill-rule="evenodd" clip-rule="evenodd" d="M147.191.034c33.416 0 65.86 11.274 91.44 31.75v-.002c33.416 26.73 53.07 64.736 55.447 106.991 2.277 41.717-13.326 82.533-42.79 111.975l-97.671 96.318c-3.784 3.747-10.346 3.714-14.13-.033l-96.291-96.216C13.665 221.309-1.971 180.46.339 138.773 2.682 96.52 22.37 58.514 55.752 31.783 81.299 11.308 113.776.033 147.19.033zM81.567 146.908c0 36.165 29.43 65.573 65.624 65.573 36.194 0 65.659-29.407 65.625-65.573 0-36.165-29.43-65.573-65.625-65.573-36.193 0-65.624 29.407-65.624 65.573z"/><path d="M147.191 114.946c-17.645 0-31.975 14.32-31.975 31.951s14.33 31.951 31.975 31.951c17.646 0 31.976-14.32 31.976-31.951s-14.33-31.951-31.976-31.951z"/></g></symbol><symbol viewBox="0 0 11 14" id="map-marker" xmlns="http://www.w3.org/2000/svg"><path fill-rule="evenodd" clip-rule="evenodd" d="M5.434.295c1.225 0 2.415.414 3.352 1.165a5.358 5.358 0 012.034 3.926 5.401 5.401 0 01-1.57 4.109l-3.58 3.534a.377.377 0 01-.519 0l-3.53-3.532A5.4 5.4 0 01.049 5.386 5.358 5.358 0 012.081 1.46 5.371 5.371 0 015.434.295zm-2.407 5.39A2.409 2.409 0 005.434 8.09 2.408 2.408 0 007.84 5.684a2.409 2.409 0 00-2.406-2.406 2.409 2.409 0 00-2.407 2.406z"/><path d="M5.434 4.512a1.173 1.173 0 10.001 2.346 1.173 1.173 0 00-.001-2.346z"/></symbol><symbol viewBox="0 0 61 48" id="nav-icon-1" xmlns="http://www.w3.org/2000/svg"><path fill-rule="evenodd" clip-rule="evenodd" d="M59.598 43.861a.52.52 0 01-.036.083.172.172 0 01-.056.073.95.95 0 01-.033.048l-.016.024c-.019.023-.04.05-.061.073a1.282 1.282 0 01-.17.144 2.174 2.174 0 01-.056.033l-.014.008a.716.716 0 01-.157.07.334.334 0 01-.038.013c-.005.002-.01.002-.013.002h-.013a.893.893 0 01-.226.032c-.106 0-.143.016-.143.016-.044.05-.122.304-.172.464l-.005.016c-.183.593-.567 1.827-2.116 1.827-1.326 0-1.984-.888-2.466-1.538l-.004-.005c-.451-.614-.623-.78-.961-.78-.34 0-.508.166-.962.778l-.004.005c-.481.65-1.14 1.538-2.468 1.538-1.326 0-1.984-.889-2.466-1.538l-.003-.005c-.452-.612-.624-.778-.962-.778-.337 0-.508.166-.962.78-.48.65-1.14 1.543-2.47 1.543-1.328 0-1.986-.888-2.468-1.538l-.003-.005c-.452-.612-.623-.778-.962-.778-.339 0-.508.166-.962.778-.48.65-1.138 1.543-2.47 1.543-1.325 0-1.983-.888-2.465-1.538l-.004-.005c-.451-.612-.623-.778-.962-.778-.336 0-.507.166-.961.78-.48.651-1.14 1.543-2.47 1.543-1.325 0-1.984-.888-2.466-1.538l-.003-.004c-.452-.612-.623-.779-.962-.779-.336 0-.508.167-.962.781-.48.65-1.14 1.543-2.47 1.543a1.4 1.4 0 01-1.074-.487c-.656-.754-.524-2.04-.254-4.077l.005-.035c.096-.737.244-1.86.195-2.407-1.757.346-4.25 3.9-5.543 6.484a.937.937 0 01-.84.522c-.018 0-.037 0-.056-.002a.937.937 0 01-.828-.622c-.216-.603-2.065-5.974-.143-8.945.72-1.11 1.886-1.75 3.377-1.847 1.296-.085 1.888-.436 2.001-.714.075-.185-.045-.5-.308-.802-.7-.805-2.267-1.45-4.05-.961-2.471.674-5.242 4.018-6.175 7.454-.327 1.208-.68 3.444.656 4.828a.957.957 0 01-.019 1.343.934.934 0 01-1.331-.02c-1.475-1.525-1.872-3.889-1.122-6.651.971-3.58 4.043-7.844 7.5-8.786 2.575-.703 4.844.266 5.954 1.54.77.88 1 1.894.635 2.782-.317.771-1.201 1.725-3.619 1.884-.9.06-1.529.384-1.921.99-.793 1.224-.61 3.396-.25 5.128 1.412-2.285 3.888-5.605 6.451-5.525.414.015.788.195 1.051.51.264.314.393.72.44 1.223 1.731-1.156 4.257-2.3 9.243-2.808-5.405-22.095 4.755-34.533 5.216-35.081l.011-.01a.384.384 0 01.16-.147c.03-.02.058-.035.089-.052l.02-.012a.475.475 0 01.059-.033.917.917 0 01.136-.045l.033-.009a.9.9 0 01.214-.027l.139.005c.277 0 .538.121.717.335.46.545 10.57 12.92 5.263 34.908 13.88.82 15.578 6.41 15.643 6.654.003.01.003.022.005.031l.014.093c.005.033.01.066.01.1a.08.08 0 000 .006v.008l.002.007v.007a.275.275 0 01-.004.049v.009a.718.718 0 01-.02.138l-.011.046-.005.017-.003.011a.563.563 0 01-.02.062zm-20.79-4.314h2.432c5.355-17.673.317-29.587-2.432-34.317v34.317zM36.927 5.479v34.068h-2.293c-5.252-17.33-.478-29.168 2.293-34.068zM56.599 44.42l.005-.015c.11-.356.298-.94.761-1.35-1.041-1.33-4.327-4.059-13.863-4.555-.207.752-.43 1.514-.675 2.288a.943.943 0 01-.896.662H33.94a.943.943 0 01-.896-.662 70.894 70.894 0 01-.628-2.131c-6.046.574-8.21 2.105-9.863 3.396l-.022.166c-.01.087-.022.175-.035.268-.091.693-.232 1.76-.204 2.33.171-.102.345-.31.628-.695l.003-.004c.482-.65 1.14-1.538 2.468-1.538 1.326 0 1.985.888 2.466 1.538l.004.004c.451.612.623.779.962.779.338 0 .508-.167.961-.779l.004-.004c.482-.65 1.14-1.538 2.468-1.538 1.326 0 1.984.888 2.466 1.538l.003.004c.454.612.626.779.962.779.339 0 .508-.167.962-.779.48-.65 1.139-1.542 2.47-1.542 1.325 0 1.984.888 2.465 1.538l.004.004c.454.615.625.781.964.781.339 0 .508-.166.962-.778l.003-.005c.482-.65 1.14-1.538 2.469-1.538 1.325 0 1.984.888 2.466 1.538l.003.005c.452.612.623.778.962.778.338 0 .51-.166.964-.78.48-.651 1.14-1.543 2.47-1.543 1.327 0 1.986.888 2.468 1.538l.003.004c.454.612.626.779.962.779.106 0 .143-.017.143-.017.044-.05.122-.304.172-.464z"/><path d="M59.562 43.944l-.44-.238.758.624-.318-.386zm.036-.083l-.463-.19-.006.016-.006.017.475.157zm-.035.083l.448.222-.766-.608.318.386zm-.057.073l-.279-.414-.087.058-.057.09.423.266zm-.033.048l.407.292-.407-.292zm-.016.024l.392.31.01-.012.009-.013-.411-.285zm-.061.073l.355.352.01-.01.008-.009-.373-.333zm-.059.057l-.334-.372-.01.01-.011.01.355.352zm-.075.064l.279.415.008-.006.009-.006-.296-.403zm-.035.023l-.27-.421.27.421zm-.036.022l.225.447.018-.009.016-.01-.259-.428zm-.02.011l-.242-.438.241.438zm-.015.008l-.244-.436.244.436zm-.05.026l-.21-.453-.008.003-.007.004.225.446zm-.029.013l-.186-.464.186.464zm-.033.013l-.171-.47.171.47zm-.027.01l.177.468.004-.002-.18-.466zm-.018.008l.2.458-.2-.458zm-.018.007l.18.467-.18-.467zm-.02.006l-.11-.488-.013.004.123.484zm-.014.002v-.5h-.002l.002.5zm-.012 0l-.122-.484h-.004l.126.485zm-.37.048l-.201-.457-.104.046-.074.086.38.325zm-.171.464l.477.149-.477-.149zm-.005.016l-.477-.149.477.149zm-4.582.289l-.402.297.402-.297zm-.004-.005l-.403.296.002.002.401-.298zm-1.923-.002l.401.298-.401-.298zm-.004.005l-.401-.298.401.297zm-4.934 0l.402-.298-.402.297zm-.003-.005l-.403.297h.001l.402-.297zm-1.924.002l-.402-.297.402.297zm-4.938.005l.402-.298-.402.298zm-.003-.005l-.403.297.001.001.402-.298zm-1.924 0l-.402-.297.402.297zm-4.935.005l.401-.298-.401.298zm-.004-.005l-.402.297v.001l.402-.298zm-1.923.003l-.403-.297.403.297zm-4.936.004l.402-.297-.402.297zm-.003-.004l-.402.297.402-.297zm-1.924.002l-.402-.297.402.297zm-3.544 1.056l.379-.326-.002-.002-.377.328zm-.254-4.077l.496.066-.496-.066zm.005-.035l-.496-.065.496.065zm.195-2.407l.498-.044-.05-.554-.545.107.097.491zm-5.543 6.484l-.447-.224-.001.002.448.222zm-.896.52l.063-.496-.017-.003h-.017l-.029.499zm-.828-.622l.471-.168v-.001l-.47.169zm-.143-8.945l-.42-.272.42.272zm3.377-1.847l.032.5-.032-.5zm2.001-.714l.463.188-.463-.188zm-.308-.802l-.377.328.377-.328zm-4.05-.961l.132.482-.132-.482zm-6.175 7.454l-.483-.13.483.13zm.656 4.828l.36-.347-.36.347zm-.019 1.343l.35.357-.35-.357zm-1.331-.02l.36-.346-.36.347zm-1.122-6.651l.483.13-.483-.13zm7.5-8.786l.131.482-.131-.482zm5.954 1.54l-.377.329.377-.329zm.635 2.782l.463.19-.463-.19zm-3.619 1.884l-.033-.499.033.5zm-1.921.99l-.42-.273v.001l.42.272zm-.25 5.128l-.49.102.256 1.23.66-1.069-.426-.263zm6.451-5.525l.017-.5h-.001l-.016.5zm1.051.51l-.383.32v.002l.383-.321zm.44 1.223l-.498.046.078.835.698-.465-.278-.416zm9.243-2.808l.05.498.572-.059-.136-.558-.486.12zM37.146 1.71l-.355-.352-.015.015-.013.015.383.322zm.011-.01l.313.39-.313-.39zm.015-.014l-.37-.337-.016.019-.016.02.402.298zm.087-.083l.325.38.015-.013.015-.015-.355-.352zm.059-.05l-.28-.414.28.414zm.088-.052l.245.435-.245-.435zm.02-.012l.245.436.011-.006.01-.007-.266-.423zm.059-.033l-.196-.46L37.28 1l.205.456zm.136-.045L37.55.916l-.026.004-.025.006.122.485zm.033-.009l.16.474.004-.002-.164-.472zm0 0l-.16-.474-.004.002.164.472zm.016-.005l-.11-.488-.014.003-.014.004.138.48zm.198-.022l.017-.5h-.017v.5zm.139.005l-.017.5h.017v-.5zm.717.335l-.383.32.001.002.382-.322zm5.263 34.908l-.486-.117-.14.58.597.036.03-.5zm15.643 6.654l.486-.12-.003-.01-.483.13zm.005.031l.495-.075-.004-.023-.005-.022-.486.12zm.014.093l.495-.07v-.006l-.495.076zm.01.106l-.498.046.001.01.497-.056zm0 .008l-.496.056v.005l.497-.061zm.002.007l.498-.043-.498.043zm0 .025l-.5-.036.5.036zm-.004.03l-.496-.061.496.062zm0 .007l-.497-.063-.001.014-.001.013.498.035zm0 .003l-.5-.035.5.035zm-.012.098l-.49-.103-.002.01-.002.012.494.081zm-.004.022l.49.099-.49-.099zm-.004.018l-.488-.11v.001l.488.11zm-.011.046l.48.141.002-.01.003-.01-.485-.121zm-.005.017l-.48-.142-.001.005.481.136zm-.003.011l-.481-.136.48.136zM41.24 39.547v.5h.37l.108-.355-.478-.145zm-2.432 0h-.5v.5h.5v-.5zm0-34.317l.432-.252-.932-1.604V5.23h.5zm-1.881 34.317v.5h.5v-.5h-.5zm0-34.068h.5v-1.9l-.935 1.654.435.246zm-2.293 34.068l-.479.145.108.355h.37v-.5zm21.97 4.858l.477.148.232-.746-.774.102.065.496zm-.005.015l.478.148-.478-.148zm.004-.015l-.477-.149-.232.746.774-.102-.065-.495zm.762-1.35l.332.373.352-.312-.29-.37-.394.308zM43.502 38.5l.026-.5-.402-.02-.106.387.482.133zm-.675 2.288l.477.15-.477-.15zm-9.783 0l-.477.15.477-.15zm-.628-2.131l.482-.135-.113-.403-.416.04.047.498zm-9.863 3.396l-.308-.394-.161.126-.027.202.496.066zm-.022.166l.497.063-.497-.063zm-.035.268l-.495-.069v.003l.495.066zm-.204 2.33l-.5.025.041.83.714-.425-.255-.43zm.628-.695l-.402-.297-.001.001.403.296zm.003-.004l-.402-.298.402.298zm4.934 0l-.401.297.401-.297zm.004.004l.402-.297-.402.297zm1.923 0l.402.298-.402-.298zm.004-.004l-.402-.298.402.298zm4.934 0l-.402.297.402-.297zm.003.004l.402-.298-.402.298zm1.924 0l.402.298v-.001l-.402-.297zm4.935-.004l.402-.298-.401.298zm.004.004l.402-.297-.402.297zm1.926.003l-.402-.298.402.298zm.003-.005l-.401-.298.401.298zm4.935 0l-.402.298.402-.298zm.003.005l.402-.297v-.001l-.402.298zm1.926-.003l.402.297-.402-.297zm4.938-.004l-.402.297.402-.297zm.003.004l.402-.298-.402.298zm1.105.762l.202.457.104-.046.074-.086-.38-.325zm3.575-.702c.03-.057.053-.113.07-.164l-.95-.314a.05.05 0 01-.001.005l.001-.003.88.476zm-.757-.624l.635.772-.635-.772zm.54.874c.148-.1.21-.236.226-.266l-.896-.444c-.014.027.02-.058.112-.12l.558.83zm.095-.075c.01-.014.03-.041.05-.073l-.847-.533a.501.501 0 01-.016.023l.813.583zm-.012.017l.012-.017-.813-.583a3.188 3.188 0 00-.02.03l.82.57zm-.099.121c.03-.035.06-.07.08-.096l-.784-.621a1.144 1.144 0 01-.042.051l.746.666zm-.098.096c.034-.03.062-.06.08-.077l-.71-.704-.038.037.668.744zm-.113.095c.04-.03.088-.068.134-.115l-.71-.704-.004.004a.211.211 0 01-.012.01l.592.805zm-.062.042l.045-.03-.558-.83-.026.017.539.843zm-.046.028l.046-.029-.539-.842a1.18 1.18 0 01-.025.016l.518.855zm-.039.022l.005-.003-.45-.893a1.198 1.198 0 00-.037.02l.482.876zm-.01.006l.01-.007-.482-.876-.017.01.488.873zm-.083.043c.037-.018.069-.036.082-.043l-.488-.873a.701.701 0 01-.016.009c-.002.001-.002.001 0 0l.422.907zm-.055.023a.877.877 0 00.069-.03l-.45-.893.01-.005.371.928zm-.047.018l.048-.018-.373-.928a.62.62 0 01-.018.007l.343.94zm-.018.007l.018-.007-.343-.939-.037.014.362.932zm.002 0l.003-.002-.009.004-.354-.936-.042.018.402.915zm-.039.016l.039-.016-.402-.916-.003.001.007-.003.359.934zm-.09.027a.648.648 0 00.09-.027l-.359-.934a.337.337 0 01.05-.014l.218.975zm-.123.014s.063.001.135-.017l-.245-.97c.063-.015.117-.014.11-.014v1zm-.002 0h.002v-1h-.002v1zm.11-.014c-.056.014-.103.014-.108.014l-.003-1c-.013 0-.067 0-.132.016l.244.97zm-.347.046c.129 0 .247-.02.352-.047l-.252-.968a.396.396 0 01-.1.015v1zm-.143-.484l.201.458h-.001l-.002.001-.004.002-.007.003a1.573 1.573 0 01-.036.012.284.284 0 01-.03.008c-.01.002-.005 0 .022 0v-1a1.116 1.116 0 00-.28.035.627.627 0 00-.05.017l-.008.004-.004.001-.001.001h-.001l.2.458zm.306.612a8.186 8.186 0 01.115-.344l.003-.006a.4.4 0 01-.044.063l-.76-.65c-.068.079-.106.172-.118.2a4.672 4.672 0 00-.151.441l.955.296zm-.005.016l.005-.015-.956-.297-.004.015.955.297zm-2.594 2.179c.932 0 1.555-.382 1.958-.875.381-.467.546-1.014.636-1.305l-.955-.295c-.094.302-.213.67-.456.968-.222.272-.566.507-1.183.507v1zm-2.868-1.74c.474.639 1.268 1.74 2.868 1.74v-1c-1.052 0-1.575-.675-2.065-1.336l-.803.596zm-.003-.005l.003.005.804-.596-.004-.004-.803.595zm-.56-.578c.042 0 .057.005.062.006a.19.19 0 01.056.037c.087.073.209.218.44.533l.806-.592c-.22-.299-.41-.545-.605-.708a1.122 1.122 0 00-.76-.276v1zm-.56.576c.233-.315.354-.46.442-.533a.193.193 0 01.056-.037.183.183 0 01.062-.006v-1c-.283 0-.524.08-.759.275-.195.163-.385.408-.605.705l.803.596zm-.004.004l.003-.004-.803-.596-.003.005.803.595zm-2.87 1.74c1.602 0 2.396-1.1 2.87-1.74l-.803-.595c-.49.66-1.013 1.336-2.067 1.336v1zm-2.868-1.74c.474.64 1.268 1.74 2.868 1.74v-1c-1.051 0-1.575-.675-2.064-1.335l-.804.595zm-.003-.004l.004.004.803-.595-.004-.005-.803.596zm-.56-.576c.042 0 .057.005.062.006a.195.195 0 01.056.037c.088.073.21.217.441.532l.805-.594c-.22-.298-.41-.543-.606-.706a1.123 1.123 0 00-.758-.275v1zm-.56.577c.233-.315.355-.46.444-.534a.197.197 0 01.056-.037.166.166 0 01.06-.006v-1c-.282 0-.523.08-.758.276-.195.163-.386.408-.606.707l.804.594zm-2.872 1.746c1.604 0 2.4-1.106 2.872-1.746l-.805-.593c-.487.66-1.013 1.339-2.067 1.339v1zm-2.87-1.74c.475.64 1.268 1.74 2.87 1.74v-1c-1.053 0-1.577-.676-2.066-1.336l-.803.596zm-.003-.005l.004.005.803-.596-.004-.004-.803.595zm-.56-.576a.19.19 0 01.062.007.195.195 0 01.056.037c.088.073.21.217.441.531l.805-.593c-.22-.298-.41-.543-.605-.707a1.123 1.123 0 00-.759-.275v1zm-.56.576c.233-.315.355-.46.443-.533a.191.191 0 01.055-.037.185.185 0 01.062-.006v-1c-.282 0-.524.08-.758.276-.195.163-.385.407-.606.705l.804.595zm-2.871 1.745c1.606 0 2.4-1.106 2.871-1.746l-.804-.593c-.488.66-1.011 1.339-2.067 1.339v1zm-2.868-1.74c.474.639 1.268 1.74 2.868 1.74v-1c-1.051 0-1.575-.675-2.064-1.336l-.804.596zm-.003-.005l.003.005.803-.596-.003-.005-.803.596zm-.56-.576c.042 0 .057.005.062.007a.193.193 0 01.056.037c.088.073.21.217.441.531l.805-.593c-.22-.298-.41-.543-.606-.707a1.123 1.123 0 00-.759-.275v1zm-.56.578c.233-.316.355-.46.443-.534a.194.194 0 01.056-.038.178.178 0 01.06-.006v-1c-.281 0-.523.08-.757.276-.195.163-.386.409-.607.708l.805.594zm-2.872 1.745c1.604 0 2.4-1.105 2.872-1.745l-.805-.594c-.487.66-1.013 1.34-2.067 1.34v1zm-2.867-1.74c.474.64 1.267 1.74 2.867 1.74v-1c-1.05 0-1.574-.675-2.064-1.335l-.803.595zm-.004-.004l.004.004.803-.596-.003-.004-.804.596zm-.56-.577c.043 0 .058.005.062.007a.191.191 0 01.057.037c.087.073.209.217.44.532l.805-.594c-.22-.298-.41-.543-.605-.706a1.123 1.123 0 00-.759-.276v1zm-.56.578c.233-.315.356-.46.444-.534a.197.197 0 01.056-.037.178.178 0 01.06-.007v-1c-.282 0-.523.08-.757.277-.196.163-.386.408-.607.707l.805.594zm-2.871 1.746c1.603 0 2.4-1.106 2.872-1.746l-.805-.594c-.487.66-1.013 1.34-2.067 1.34v1zm-1.453-.66a1.9 1.9 0 001.453.66v-1a.9.9 0 01-.696-.313l-.757.653zm-.372-4.47c-.134 1.01-.24 1.88-.224 2.597.016.72.158 1.37.597 1.874l.755-.656c-.217-.25-.338-.62-.352-1.241-.015-.625.08-1.415.216-2.442l-.992-.132zm.005-.034l-.005.035.992.13.005-.035-.992-.13zm.193-2.298c.02.222 0 .597-.043 1.04a38.5 38.5 0 01-.15 1.258l.992.13c.048-.367.11-.84.154-1.292.042-.44.072-.9.043-1.224l-.996.088zm-4.598 6.664c.633-1.265 1.561-2.77 2.541-3.993.49-.612.984-1.143 1.452-1.537.477-.402.884-.625 1.2-.687l-.194-.982c-.562.111-1.125.462-1.65.904-.535.45-1.074 1.035-1.588 1.677a24.703 24.703 0 00-2.655 4.17l.894.448zm-1.287.798c.542 0 1.043-.306 1.288-.8l-.896-.444a.437.437 0 01-.392.244v1zm-.119-.006c.056.007.106.006.12.006v-1h-.014l.019.002-.126.992zm-1.236-.95c.195.544.695.92 1.27.953l.058-.999a.437.437 0 01-.386-.29l-.942.336zm-.092-9.385c-1.064 1.646-1.057 3.889-.805 5.701.255 1.839.784 3.369.898 3.685l.94-.338a18.719 18.719 0 01-.848-3.485c-.246-1.766-.203-3.694.655-5.02l-.84-.543zm3.764-2.074c-1.625.107-2.946.812-3.764 2.074l.84.544c.621-.96 1.633-1.531 2.99-1.62l-.066-.998zm1.571-.403c.02-.051.002.038-.284.155-.26.107-.675.208-1.287.248l.066.998c.684-.045 1.212-.161 1.601-.321.363-.15.697-.375.83-.704l-.926-.376zm-.221-.285c.102.117.162.221.19.294a.238.238 0 01.016.058c0 .002-.002-.025.015-.067l.926.376c.107-.262.05-.532-.023-.724a2.032 2.032 0 00-.371-.595l-.753.658zm-3.541-.808c1.608-.441 2.973.156 3.54.807l.754-.657c-.834-.957-2.602-1.651-4.559-1.114l.265.964zm-5.826 7.103c.447-1.642 1.336-3.274 2.414-4.575 1.085-1.31 2.314-2.229 3.411-2.528l-.263-.965c-1.375.376-2.767 1.466-3.918 2.855-1.16 1.4-2.121 3.157-2.609 4.951l.965.262zm.534 4.35c-.554-.574-.777-1.343-.812-2.154-.035-.812.122-1.617.278-2.196l-.965-.261c-.17.63-.353 1.546-.312 2.5.04.954.309 1.995 1.091 2.805l.72-.695zM9.25 46.88c.566-.557.58-1.47.029-2.046l-.722.693a.457.457 0 01-.009.64l.702.713zm-2.042-.028a1.434 1.434 0 002.04.03l-.698-.716a.434.434 0 01-.622-.008l-.72.694zm-1.244-7.13c-.778 2.865-.394 5.435 1.244 7.13l.72-.695c-1.31-1.356-1.722-3.513-1-6.173l-.964-.262zm7.85-9.137c-1.867.509-3.582 1.896-4.939 3.571-1.362 1.682-2.406 3.704-2.911 5.566l.965.262c.466-1.718 1.442-3.617 2.723-5.198 1.286-1.587 2.836-2.803 4.425-3.237l-.263-.964zm6.463 1.694c-1.235-1.418-3.701-2.448-6.463-1.694l.263.964c2.389-.651 4.461.256 5.446 1.387l.754-.657zm.72 3.3c.454-1.105.141-2.315-.72-3.3l-.753.657c.677.775.824 1.592.549 2.263l.925.38zm-4.048 2.193c1.268-.083 2.18-.378 2.83-.788.657-.414 1.023-.93 1.219-1.405l-.925-.38c-.122.295-.357.643-.826.939-.475.299-1.215.56-2.364.636l.066.998zm-1.535.763c.286-.44.749-.711 1.535-.763l-.066-.998c-1.015.067-1.808.447-2.308 1.216l.84.545zm-.18 4.755c-.175-.846-.304-1.785-.296-2.649.008-.877.156-1.612.476-2.107l-.84-.543c-.472.73-.627 1.693-.636 2.641-.009.96.134 1.974.318 2.861l.979-.203zm5.978-5.923c-1.496-.047-2.886.89-4.025 2.02-1.157 1.145-2.153 2.585-2.867 3.742l.85.525c.698-1.13 1.646-2.492 2.72-3.557 1.093-1.082 2.223-1.764 3.29-1.73l.032-1zm1.42.69a1.915 1.915 0 00-1.419-.69l-.034.999c.274.01.514.127.685.33l.767-.64zm.553 1.495c-.052-.559-.202-1.077-.555-1.497l-.765.643c.173.207.283.5.324.947l.996-.093zm8.694-3.258c-5.052.514-7.66 1.68-9.47 2.889l.556.832c1.651-1.103 4.096-2.225 9.015-2.726l-.1-.995zm4.884-34.906c-.52.619-10.775 13.217-5.319 35.522l.972-.238c-5.353-21.884 4.711-34.163 5.113-34.64l-.766-.644zm.083-.079c-.002.002-.028.022-.055.049l.71.704a.436.436 0 01-.025.023l-.007.006-.623-.782zm-.075.079a.45.45 0 01.056-.063l.019-.016.623.782a.599.599 0 00.104-.106l-.803-.597zm.163-.165a1.49 1.49 0 00-.131.126l.738.675a.477.477 0 01.043-.04l-.65-.761zm.105-.084a.888.888 0 00-.135.112l.71.704c.004-.004-.002.003-.017.013l-.559-.83zm.121-.074c-.027.016-.073.041-.121.074l.558.83a.827.827 0 01.054-.033l-.49-.871zm.02-.011l-.02.011.491.871.02-.011-.491-.871zm.1-.054c-.059.026-.106.057-.121.066l.534.846a.729.729 0 01.013-.008l-.017.008L37.28 1zm.219-.074a1.416 1.416 0 00-.21.07l.391.92a.423.423 0 01.063-.02L37.5.926zm-.005.002c-.007.003-.002 0 .005-.001a.378.378 0 01.05-.01l.143.989c.064-.01.12-.03.121-.03l-.319-.948zM37.49.93l.328.944L37.49.93zm.042-.014l-.037.012.318.948.003-.001-.007.002-.277-.96zm.336-.04a1.4 1.4 0 00-.307.033l.219.976a.4.4 0 01.088-.01v-1zm.156.004l-.139-.004-.034 1 .139.004.034-1zm1.083.514a1.432 1.432 0 00-1.1-.514v1c.13 0 .25.056.334.156l.766-.642zm5.366 35.346c5.359-22.197-4.846-34.731-5.367-35.348l-.764.645c.4.475 10.416 12.69 5.159 34.468l.972.235zm15.64 6.407c-.06-.223-.564-1.785-2.836-3.39-2.265-1.599-6.258-3.22-13.26-3.633l-.06.998c6.878.407 10.674 1.991 12.744 3.453 2.063 1.456 2.441 2.811 2.447 2.832l.965-.26zm.008.041c.005.02.007.036.008.043v.007c.001.001.001.002 0 0v-.008l-.002-.015a.586.586 0 00-.011-.058l-.97.24a.439.439 0 01-.01-.042v-.008s0-.001 0 0v.008l.003.016a.531.531 0 00.01.057l.972-.24zm.023.137l-.014-.092-.99.15.015.093.989-.15zm.015.175c0-.074-.01-.142-.015-.17l-.99.14.003.021.002.012V43.5h1zm-.002-.038a.42.42 0 01.002.038h-1l.002.053.996-.09zm0-.004l-.001-.007-.994.113.001.007.994-.113zm.002.02a.514.514 0 00-.003-.025l-.992.123c0 .002 0 0 0 0l-.001-.01.996-.087zm.002.05a.578.578 0 00-.002-.05l-.996.088a.396.396 0 01-.002-.037h1zm-.002.056a.787.787 0 00.002-.055h-1v-.018l.998.072zm-.006.056l.006-.056-.997-.073v-.004l-.001.009.992.124zm0 .005v-.005l-.992-.124v.006l.992.123zm.002-.023v-.003l-.997-.07v.003l.997.07zm-.021.167a.958.958 0 00.02-.167l-.997-.07-.001.02-.001.012v-.002l.979.207zm-.003.017a1.13 1.13 0 00.007-.039l-.987-.163v.005l.98.197zm-.006.029l.006-.03-.98-.197-.002.008.976.219zm-.014.056l.014-.056-.976-.219a1.83 1.83 0 01-.008.035l.97.24zm-.01.038l.005-.017-.96-.282-.005.016.96.282zm-.002.006l.003-.011-.962-.273-.003.012.962.272zm-.04.117c.022-.052.035-.101.04-.117l-.963-.271a1.11 1.11 0 00-.005.017l.004-.01.925.381zm-18.82-5.005h-2.43v1h2.43v-1zM38.377 5.48c2.696 4.639 7.691 16.41 2.385 33.92l.957.29c5.404-17.834.324-29.892-2.478-34.713l-.864.503zm.932 34.066V5.23h-1v34.317h1zm-1.881 0V5.479h-1v34.068h1zm-2.793.5h2.293v-1h-2.293v1zm1.858-34.814c-2.822 4.99-7.636 16.97-2.337 34.459l.957-.29c-5.203-17.17-.47-28.867 2.25-33.677l-.87-.492zm19.634 39.023l-.005.016.956.296.004-.015-.955-.297zm.542.644l-.13-.991.13.991zm.365-2.22c-.579.514-.799 1.226-.907 1.576l.955.297c.112-.362.268-.817.616-1.124l-.664-.749zM43.476 39c9.453.491 12.575 3.188 13.495 4.363l.788-.617C56.596 41.262 53.147 38.5 43.528 38l-.052.998zm-.172 1.938c.246-.78.471-1.547.68-2.305l-.964-.266a62.615 62.615 0 01-.67 2.27l.954.301zM41.93 41.95c.63 0 1.183-.413 1.373-1.011l-.954-.302a.443.443 0 01-.42.313v1zm-7.991 0h7.99v-1h-7.99v1zm-1.373-1.011c.19.598.742 1.01 1.373 1.01v-1a.442.442 0 01-.42-.312l-.953.302zm-.633-2.148c.197.704.405 1.419.633 2.146l.954-.298c-.224-.716-.43-1.42-.623-2.117l-.964.269zm-9.074 3.656c.813-.635 1.725-1.308 3.166-1.898 1.447-.593 3.45-1.11 6.437-1.395l-.094-.995c-3.059.29-5.162.825-6.722 1.464-1.565.642-2.561 1.38-3.402 2.036l.615.788zm.168-.165l.02-.164-.99-.13c-.009.056-.016.113-.023.168l.992.126zm-.036.274l.035-.274-.992-.126a21.21 21.21 0 01-.034.262l.99.138zm-.2 2.237c-.026-.513.105-1.524.2-2.24L22 42.421c-.089.67-.24 1.795-.209 2.421l1-.05zm-.275-.967c-.298.406-.413.521-.48.562l.51.86c.276-.164.509-.466.776-.83l-.806-.592zm.004-.006l-.003.005.803.595.004-.005-.804-.595zm2.87-1.74c-1.602 0-2.395 1.1-2.87 1.74l.804.595c.49-.66 1.013-1.335 2.066-1.335v-1zm2.868 1.74c-.474-.64-1.268-1.74-2.868-1.74v1c1.052 0 1.575.675 2.065 1.335l.803-.595zm.003.004l-.003-.004-.803.596.003.004.803-.596zm.56.577a.187.187 0 01-.062-.007.195.195 0 01-.056-.037c-.088-.073-.21-.217-.44-.532l-.806.594c.22.298.41.543.606.706.235.196.477.276.759.276v-1zm.56-.577c-.233.315-.354.46-.442.533a.19.19 0 01-.056.037.182.182 0 01-.061.007v1c.282 0 .523-.08.758-.276.195-.163.385-.408.605-.705l-.803-.596zm.004-.004l-.003.005.803.595.003-.005-.803-.595zm2.87-1.74c-1.602 0-2.396 1.1-2.87 1.74l.803.595c.49-.66 1.013-1.335 2.067-1.335v-1zm2.868 1.74c-.474-.64-1.268-1.74-2.868-1.74v1c1.051 0 1.575.675 2.064 1.335l.804-.595zm.003.004l-.003-.004-.804.596.004.004.803-.596zm.56.577a.178.178 0 01-.06-.007.195.195 0 01-.056-.037c-.088-.074-.21-.218-.444-.533l-.803.596c.22.298.411.542.606.705.234.195.476.276.757.276v-1zm.56-.577c-.233.315-.355.46-.442.533a.192.192 0 01-.056.037.183.183 0 01-.062.007v1c.283 0 .524-.08.759-.276.195-.163.385-.408.605-.705l-.803-.596zm2.871-1.744c-1.605 0-2.399 1.105-2.871 1.745l.804.594c.488-.66 1.011-1.34 2.067-1.34v-1zm2.868 1.74c-.474-.64-1.267-1.74-2.867-1.74v1c1.05 0 1.574.675 2.064 1.335l.803-.595zm.004.005l-.004-.005-.803.595.003.005.804-.595zm.562.578a.183.183 0 01-.062-.007.193.193 0 01-.057-.037c-.088-.073-.21-.218-.443-.534l-.804.594c.22.3.411.545.607.708.235.196.477.276.76.276v-1zm.56-.576c-.233.315-.355.46-.443.533-.035.029-.051.035-.055.037a.185.185 0 01-.062.006v1c.282 0 .524-.08.758-.276.195-.163.385-.407.606-.705l-.804-.595zm.004-.005l-.004.005.804.595.003-.004-.803-.596zm2.87-1.74c-1.602 0-2.396 1.1-2.87 1.74l.803.596c.49-.66 1.013-1.336 2.067-1.336v-1zm2.867 1.74c-.474-.639-1.267-1.74-2.867-1.74v1c1.05 0 1.574.675 2.064 1.336l.803-.596zm.004.005l-.004-.005-.803.596.003.005.804-.596zm.56.576a.184.184 0 01-.062-.007.197.197 0 01-.057-.037c-.087-.073-.209-.217-.44-.531l-.805.593c.22.298.41.543.605.706.235.196.477.276.759.276v-1zm.562-.578c-.233.316-.355.46-.443.534a.192.192 0 01-.057.037.181.181 0 01-.062.007v1c.282 0 .524-.08.759-.276.196-.163.386-.409.607-.708l-.804-.594zm2.871-1.745c-1.603 0-2.399 1.105-2.871 1.745l.804.594c.488-.66 1.014-1.34 2.067-1.34v-1zm2.87 1.74c-.474-.64-1.267-1.74-2.87-1.74v1c1.054 0 1.578.675 2.067 1.335l.803-.595zm.004.004l-.004-.004-.803.596.003.004.804-.596zm.56.577a.18.18 0 01-.06-.007.196.196 0 01-.057-.037c-.088-.074-.21-.218-.443-.533l-.804.596c.221.298.412.542.607.705.234.195.475.276.757.276v-1zm.143.483c-.202-.457-.201-.458-.201-.458h.001l.002-.001.004-.002.007-.003a.254.254 0 01.036-.012.276.276 0 01.03-.008c.01-.002.005 0-.022 0v1a1.123 1.123 0 00.28-.035.656.656 0 00.05-.017l.008-.003.004-.002h.002v-.001l-.2-.458zm-.306-.612a8.186 8.186 0 01-.115.345.246.246 0 01.008-.012.393.393 0 01.034-.046l.76.65c.067-.079.105-.172.117-.2.021-.048.04-.102.058-.151.035-.1.07-.211.094-.29l-.956-.296zM7.288 31.136c-.12-.145-1.21-1.405-2.608-1.405-.646 0-1.57.268-2.297 1.542l-.812 1.424h7.02l-1.303-1.561z"/><path fill-rule="evenodd" clip-rule="evenodd" d="M5.464 34.575l.966.102-.122.973c-.355 2.63-3.102 5.404-3.22 5.522l-1.272 1.272-.315-1.78c-.374-2.093-.108-3.702.788-4.782 1.253-1.512 3.175-1.307 3.175-1.307zM3.735 37.1a2.046 2.046 0 00-.378.752c.2-.301.392-.617.557-.935a1.64 1.64 0 00-.179.183z"/><path d="M6.43 34.677l.497.062.063-.506-.507-.054-.053.498zm-.966-.102l-.053.497.053-.498zm.844 1.075l.496.067v-.005l-.496-.062zm-3.22 5.522l.354.354.002-.002-.355-.352zm-1.272 1.272l-.492.087.167.945.679-.678-.354-.354zm-.315-1.78l.493-.087-.493.087zm.788-4.782l.385.32-.385-.32zm1.068 1.97l-.48-.14-.054.186.085.174.449-.22zm.378-.752l.384.32.003-.003-.387-.317zm-.378.752l-.45.22.385.783.481-.727-.416-.276zm.557-.935l.444.23-.777-.603.333.373zm2.569-2.738l-.967-.102-.105.995.967.102.105-.995zm.321 1.533l.123-.973-.993-.125-.122.973.992.125zm-3.36 5.812c.067-.068.804-.812 1.571-1.88.759-1.054 1.594-2.487 1.789-3.927l-.991-.134c-.161 1.19-.876 2.458-1.61 3.477a15.357 15.357 0 01-1.47 1.76l.71.704zM2.17 42.798l1.272-1.272-.707-.708-1.272 1.273.707.707zM1.009 40.75l.315 1.78.985-.174-.315-1.78-.985.174zm.895-5.188c-1.03 1.24-1.281 3.026-.895 5.19l.984-.177c-.361-2.023-.081-3.456.68-4.374l-.769-.64zm3.56-.989l.052-.497h-.012l-.023-.003a3.91 3.91 0 00-.348-.008c-.225.005-.537.03-.892.107-.71.154-1.618.523-2.337 1.39l.77.638c.535-.645 1.215-.929 1.778-1.05a3.765 3.765 0 01.903-.083l.048.003h.01s0 .001 0 0h-.001l.052-.496zm-1.627 3.418a1.55 1.55 0 01.282-.571l-.767-.642a2.548 2.548 0 00-.475.933l.96.28zm-.031-.36l-.898.44.898-.44zm-.336-.945a9.695 9.695 0 01-.53.889l.833.552c.207-.31.41-.642.585-.981l-.888-.46zm.652.73c.034-.041.074-.082.125-.127l-.666-.746a2.135 2.135 0 00-.232.239l.773.634z"/><path fill-rule="evenodd" clip-rule="evenodd" d="M12.707 29.291c0 .992-.802 1.8-1.785 1.8a1.793 1.793 0 01-1.783-1.8c0-.992.8-1.799 1.783-1.799.985 0 1.785.807 1.785 1.8zm-1.687 0a.1.1 0 00-.098-.1.098.098 0 00-.097.1c0 .11.195.11.195 0z"/><path d="M10.922 31.59a2.295 2.295 0 002.285-2.299h-1c0 .72-.582 1.3-1.285 1.3v1zm-2.283-2.299a2.293 2.293 0 002.283 2.3v-1a1.293 1.293 0 01-1.283-1.3h-1zm2.283-2.299a2.293 2.293 0 00-2.283 2.3h1c0-.72.58-1.3 1.283-1.3v-1zm2.285 2.3a2.293 2.293 0 00-2.285-2.3v1c.705 0 1.285.58 1.285 1.3h1zm-2.285.4a.4.4 0 01-.402-.4h1a.6.6 0 00-.598-.6v1zm.403-.4c0 .2-.162.4-.403.4v-1a.598.598 0 00-.597.6h1zm-.805 0c0-.143.072-.267.171-.34a.387.387 0 01.232-.079c.06 0 .147.016.232.079.098.073.17.197.17.34h-1c0 .196.097.36.232.461a.613.613 0 00.732 0 .574.574 0 00.231-.462h-1z"/></symbol><symbol viewBox="0 0 52 33" id="nav-icon-2" xmlns="http://www.w3.org/2000/svg"><path fill-rule="evenodd" clip-rule="evenodd" d="M49.75 22.276v2.747c.57.116 1 .616 1 1.212v.987c0 .6-.43 1.098-1 1.214v.025h-6.565c-.363 2.24-2.322 3.958-4.686 3.958-2.363 0-4.322-1.718-4.683-3.958H16.435c-.363 2.24-2.322 3.958-4.686 3.958-2.363 0-4.324-1.72-4.685-3.958H3.249l-.748.002a1.247 1.247 0 01-1.252-1.239v-.988c0-.684.563-1.238 1.252-1.238h.748V13.867c0-3.412 2.805-6.187 6.252-6.187l5.77-.004V5.703C9.185 5.129 4.029 4.056 2.468 2.512a.733.733 0 01-.134-.868.752.752 0 01.796-.387c4.977.882 12.715 1 19.626 1a1029.147 1029.147 0 005.345-.014c.914-.003 1.8-.006 2.649-.006l6.437.002h.002c4.358 0 7.041-.029 10.522-.197a.758.758 0 01.757.537.74.74 0 01-.353.853c-.502.278-1.127.537-1.867.777V5.71a1.7 1.7 0 01-.963 1.549 1.773 1.773 0 01-.793.19c-.363 0-.725-.115-1.037-.345l-2.42-1.776c-3.082.444-6.898.726-11.285.827v1.527l5.248-.002c3.344 0 6.428 1.107 8.904 2.969l.205.158a14.658 14.658 0 014.66 6.24l.006.012.014.033.043.113.037.096.299.767h-.043c.406 1.334.627 2.747.627 4.208zM36 16.586h10.932a13.23 13.23 0 00-3.553-4.453H36a.253.253 0 00-.25.247v3.958c0 .134.115.248.25.248zM44.75 5.71a.23.23 0 01-.139.223.232.232 0 01-.261-.024l-1.258-.921a33.19 33.19 0 001.658-.358v1.08zM26.09 3.736c-1.086.003-2.2.007-3.332.007-4.44 0-9.22-.05-13.422-.32 4.035.755 9.838 1.288 16.664 1.288 6.273 0 11.76-.363 15.742-1.003-1.357.015-2.824.021-4.55.021h-.002l-6.44-.006c-1.168 0-2.404.004-3.69.01l-.97.003zm-9.319 2.1c3.01.238 6.186.36 9.229.36.764 0 1.514-.006 2.25-.016v1.5H16.771V5.836zM8.5 27.719c0 1.774 1.457 3.216 3.25 3.216S15 29.493 15 27.72c0-1.774-1.457-3.216-3.25-3.216S8.5 25.945 8.5 27.719zm30 3.216c-1.793 0-3.25-1.442-3.25-3.216 0-1.774 1.457-3.216 3.25-3.216s3.25 1.442 3.25 3.216c0 1.774-1.457 3.216-3.25 3.216zm0-7.916c2.363 0 4.324 1.718 4.685 3.958h6.065v-.495h-4.5v-1.484h3.5v-2.72c0-1.472-.25-2.885-.703-4.207H36c-.965 0-1.75-.777-1.75-1.732V12.38c0-.955.785-1.732 1.75-1.732h5.111a13.294 13.294 0 00-6.113-1.485H9.502c-2.621 0-4.752 2.111-4.752 4.703v2.72h7.535v1.484H4.75v6.927h1v1.484h-3v.495h4.314c.364-2.24 2.323-3.958 4.686-3.958s4.324 1.718 4.685 3.958h17.38c.363-2.24 2.322-3.958 4.685-3.958z"/><path d="M49.75 25.023l.084.288.216-.063v-.225h-.3zm0 0l-.084-.288.024.582.06-.294zm0 3.413l-.06-.294-.24.049v.245h.3zm0 .025v.3h.3v-.3h-.3zm-6.565 0v-.3h-.255l-.041.252.296.048zm-9.37 0l.297-.048-.04-.252h-.256v.3zm-17.38 0v-.3h-.255l-.041.252.296.048zm-9.371 0l.296-.048-.04-.252h-.256v.3zm-3.815 0v-.3.3zm-.748.002v.3h.001v-.3zm.748-3.465v.3h.3v-.3h-.3zM9.501 7.68v.3-.3zm5.77-.004v.3h.3v-.3h-.3zm0-1.973h.3V5.43l-.272-.026-.028.299zM2.468 2.512l.211-.214-.21.214zm-.134-.868l-.265-.141.265.14zm.796-.387l-.052.296.052-.296zm23.924.99v-.3.3zm1.047-.004v.3-.3zm0 0l-.001-.3.001.3zm0 0v-.3.3zm0 0l.002.3-.001-.3zm0 0v-.3.3zm2.649-.006v-.3.3zm6.437.002v.3-.3zm10.524-.197l-.012-.3h-.003l.015.3zm.757.537l.289-.083-.289.083zm-.353.853l.145.262-.145-.262zm-1.867.777l-.093-.286-.207.067v.219h.3zm-.963 3.05l.134.268-.134-.268zm-1.83-.155l.178-.242-.178.242zm-2.42-1.776l.177-.242-.099-.073-.121.018.043.297zm-11.285.827l-.007-.3-.293.007v.293h.3zm0 1.527h-.3v.3h.3v-.3zm5.248-.002v-.3.3zm8.904 2.969l.184-.238-.003-.002-.18.24zm.205.158l.185-.237h-.001l-.184.237zm4.66 6.24l-.279.11.005.013.007.013.268-.135zm.006.012l.277-.115-.004-.01-.005-.01-.268.136zm.014.033l.283-.1-.003-.008-.003-.007-.277.115zm.043.113l-.279.11v.001l.279-.111zm0 0l.28-.108-.001-.004-.279.112zm0 0l-.28.108.002.003.278-.111zm0 0l.28-.108-.001-.003-.279.111zm0 0l-.28.109.002.003.278-.112zm0 0l.28-.11-.001-.001-.279.111zm.037.096l-.282.103.003.006.28-.109zm.299.767v.3h.439l-.16-.408-.279.108zm-.043 0v-.3h-.405l.118.388.287-.088zm-2.191-1.482v.3h.48l-.21-.432-.27.132zm-3.553-4.453l.19-.233-.084-.067h-.106v.3zm1.232-6.2l-.133-.27.133.27zm.139-.223h-.3.3zm-.4.2l.178-.242h-.001l-.177.241zm-1.258-.923l-.056-.294-.678.129.556.407.178-.242zm1.658-.357h.3v-.382l-.371.09.071.292zm-18.66-.894l.002.3-.001-.3zm0 0v-.3.3zm-3.332.007l-.027-.299.027.599v-.3zm0 0l.028.299-.028-.6v.3zm-13.422-.32l.02-.299-.075.595.055-.295zm32.406.285l.048.296-.051-.596.003.3zm-4.552.021v.3-.3zm-6.44-.006v-.3.3zm-3.69.01l.002.3-.001-.3zM16.773 5.836l.023-.3-.324-.025v.325h.3zm11.478.344h.3v-.304l-.304.004.004.3zm0 1.5v.3h.3v-.3h-.3zm-11.479 0h-.3v.3h.3v-.3zm26.414 19.297l-.296.048.041.252h.255v-.3zm6.065 0v.3h.3v-.3h-.3zm0-.495h.3v-.3h-.3v.3zm-4.5 0h-.3v.3h.3v-.3zm0-1.484v-.3h-.3v.3h.3zm3.5 0v.3h.3v-.3h-.3zm-.703-6.927l.284-.098-.07-.202h-.214v.3zm-6.436-7.422v.3l.138-.567-.138.267zM4.75 16.586h-.3v.3h.3v-.3zm7.535 0h.3v-.3h-.3v.3zm0 1.485v.3h.3v-.3h-.3zm-7.535 0v-.3h-.3v.3h.3zm0 6.927h-.3v.3h.3v-.3zm1 0h.3v-.3h-.3v.3zm0 1.484v.3h.3v-.3h-.3zm-3 0v-.3h-.3v.3h.3zm0 .495h-.3v.3h.3v-.3zm4.314 0v.3h.256l.04-.252-.296-.048zm9.371 0l-.296.048.04.252h.256v-.3zm17.38 0v.3h.255l.04-.252-.296-.048zm16.235-1.954v-2.747h-.6v2.747h.6zm-.217.288l-.167-.576.167.576zm1.217.924c0-.744-.536-1.363-1.24-1.506l-.12.588c.436.088.76.47.76.918h.6zm0 .987v-.987h-.6v.987h.6zm-1.24 1.508a1.543 1.543 0 001.24-1.508h-.6a.943.943 0 01-.76.92l.12.588zm.24-.269v-.025h-.6v.025h.6zm-6.865.3h6.565v-.6h-6.565v.6zM38.5 32.72c2.512 0 4.595-1.826 4.982-4.21l-.592-.096c-.34 2.096-2.174 3.706-4.39 3.706v.6zm-4.98-4.21c.385 2.384 2.47 4.21 4.98 4.21v-.6c-2.215 0-4.049-1.61-4.387-3.706l-.592.096zm-17.084.252h17.38v-.6h-17.38v.6zM11.75 32.72c2.512 0 4.595-1.826 4.982-4.21l-.592-.096c-.34 2.096-2.175 3.706-4.39 3.706v.6zm-4.981-4.21c.384 2.383 2.47 4.21 4.981 4.21v-.6c-2.215 0-4.051-1.612-4.389-3.706l-.592.096zm-3.519.252h3.815v-.6H3.249v.6zm-.747.002l.748-.002-.001-.6-.748.002.001.6zM.95 27.224c0 .85.698 1.539 1.552 1.539v-.6a.947.947 0 01-.952-.939h-.6zm0-.988v.988h.6v-.988h-.6zm1.552-1.538c-.852 0-1.552.685-1.552 1.538h.6c0-.515.425-.938.952-.938v-.6zm.748 0h-.748v.6h.748v-.6zm-.3-10.831v11.13h.6v-11.13h-.6zM9.501 7.38c-3.61 0-6.552 2.907-6.552 6.487h.6c0-3.243 2.668-5.887 5.952-5.887v-.6zm5.77-.004L9.5 7.38v.6l5.77-.004v-.6zm-.3-1.673v1.973h.6V5.703h-.6zM2.257 2.725c.431.426 1.088.801 1.9 1.134.818.334 1.815.635 2.946.904 2.264.537 5.09.95 8.14 1.238l.056-.597c-3.035-.286-5.83-.696-8.057-1.225-1.113-.264-2.078-.557-2.857-.876-.784-.32-1.356-.659-1.706-1.005l-.422.427zm-.189-1.221c-.214.405-.137.9.19 1.222l.42-.429a.433.433 0 01-.08-.513l-.53-.28zM3.183.962a1.052 1.052 0 00-1.114.54l.53.283a.452.452 0 01.479-.232l.105-.591zm19.573.994c-6.917 0-14.628-.118-19.573-.994l-.105.59c5.008.887 12.774 1.004 19.678 1.004v-.6zm4.297-.01c-1.386.007-2.83.01-4.297.01v.6c1.469 0 2.913-.003 4.3-.01l-.003-.6zm1.047-.003l-1.047.004.002.6 1.047-.004-.002-.6zm0 0l.002.6-.002-.6zm0 0l.002.6-.002-.6zm0 0l.002.6-.002-.6zm0 0l.002.6-.002-.6zm0 0l.002.6-.001-.6zm0 0l.003.6-.002-.6zm2.65-.006c-.85 0-1.736.003-2.65.006l.003.6c.913-.003 1.798-.006 2.647-.006v-.6zm6.437.002l-6.437-.002v.6l6.437.002v-.6zm.002 0h-.002v.6h.002v-.6zm10.507-.197c-3.473.168-6.151.197-10.507.197v.6c4.36 0 7.048-.029 10.536-.197l-.029-.6zm1.06.754a1.058 1.058 0 00-1.057-.754l.023.6a.458.458 0 01.458.32l.577-.166zm-.495 1.198a1.04 1.04 0 00.496-1.198l-.577.167a.44.44 0 01-.21.506l.29.525zm-1.92.8c.751-.244 1.395-.51 1.92-.8l-.292-.525c-.48.266-1.085.518-1.814.754l.185.571zm.207 1.216v-1.5h-.6v1.5h.6zm-1.13 1.817a2 2 0 001.13-1.817h-.6a1.4 1.4 0 01-.797 1.28l.268.537zm-.926.223c.316 0 .63-.076.927-.223l-.268-.537a1.47 1.47 0 01-.66.16v.6zm-1.215-.404c.363.267.787.404 1.215.404v-.6c-.299 0-.598-.095-.86-.288l-.355.484zm-2.42-1.776l2.42 1.776.355-.484-2.42-1.776-.355.484zm-11.1.885c4.394-.1 8.223-.384 11.32-.83l-.085-.594c-3.066.442-6.87.724-11.249.824l.014.6zm.293 1.227V6.155h-.6v1.527h.6zm4.948-.302l-5.248.002v.6l5.248-.002v-.6zm9.085 3.029a15.074 15.074 0 00-9.085-3.03v.6a14.47 14.47 0 018.724 2.91l.36-.48zm.208.16l-.205-.158-.367.475.205.159.367-.475zm4.756 6.37a14.959 14.959 0 00-4.755-6.369l-.369.474a14.36 14.36 0 014.565 6.113l.56-.218zm-.006-.015l-.006-.011-.535.27.006.012.535-.27zm.023.053l-.014-.033-.554.23.014.034.554-.23zm.045.117a3.11 3.11 0 01-.04-.102l-.565.2c.016.045.033.087.047.123l.558-.22zm0 0l-.558.222.558-.223zm0 .003l-.559.216.56-.216zm0-.003l-.557.222.557-.222zm.001.003l-.56.216.56-.216zm-.001-.003l-.557.223.557-.223zm.04.104a4.21 4.21 0 00-.04-.103l-.558.22.034.089.564-.206zm.297.762l-.3-.768-.558.218.298.767.56-.217zm-.323.408h.043v-.6h-.043v.6zm.927 3.908c0-1.491-.225-2.934-.64-4.295l-.574.175a14.12 14.12 0 01.614 4.12h.6zm-3.118-5.99H36v.6h10.932v-.6zm0 0v.6-.6zm-3.742-3.92a12.93 12.93 0 013.473 4.352l.538-.264a13.53 13.53 0 00-3.633-4.554l-.378.466zm-7.19.067h7.38v-.6H36v.6zm.05-.053a.055.055 0 01-.014.04.05.05 0 01-.036.013v-.6a.553.553 0 00-.55.547h.6zm0 3.958V12.38h-.6v3.958h.6zm-.05-.052a.05.05 0 01.036.013.055.055 0 01.014.04h-.6c0 .302.253.547.55.547v-.6zm8.744-10.084A.547.547 0 0044.971 6a.544.544 0 00.079-.29h-.6l.001-.004a.085.085 0 01.026-.041c.004-.004.005-.004.001-.002l.266.538zm-.572-.051c.076.056.17.1.278.11a.55.55 0 00.294-.06l-.266-.537c-.004.002-.004.001.001 0a.082.082 0 01.048.004c.005.002.005.003 0 0l-.355.483zm-1.258-.922l1.258.922.355-.484-1.258-.921-.355.483zm1.765-.89c-.51.124-1.058.243-1.643.354l.112.59a33.472 33.472 0 001.673-.362l-.142-.583zm.371 1.371V4.63h-.6v1.08h.6zM26.092 4.036l-.002-.6.002.6zm-3.334.007c1.132 0 2.247-.004 3.334-.007l-.002-.6c-1.087.003-2.201.007-3.332.007v.6zm-.027-.599l.054.598-.054-.598zm-13.414.28c4.212.269 9.001.319 13.441.319v-.6c-4.438 0-9.211-.05-13.402-.319l-.039.6zM26 4.41c-6.812 0-12.596-.532-16.608-1.282l-.11.59C13.338 4.477 19.16 5.01 26 5.01v-.6zm15.695-1c-3.961.637-9.43 1-15.695 1v.6c6.283 0 11.786-.364 15.79-1.007l-.095-.592zm-4.503.618c1.727 0 3.195-.006 4.554-.021l-.007-.6c-1.356.015-2.821.021-4.547.021v.6zm-.002 0h.002v-.6h-.002v.6zm-6.44-.006l6.44.006v-.6l-6.44-.006v.6zm-3.688.01c1.285-.006 2.52-.01 3.688-.01v-.6c-1.168 0-2.405.004-3.69.01l.002.6zm-.97.003l.97-.003-.002-.6-.97.003.002.6zM26 5.896c-3.035 0-6.203-.122-9.205-.36l-.047.6c3.018.237 6.201.36 9.252.36v-.6zm2.246-.016c-.735.01-1.484.015-2.246.015v.6c.765 0 1.517-.005 2.254-.015l-.008-.6zm.304 1.8v-1.5h-.6v1.5h.6zm-11.779.3H28.25v-.6H16.771v.6zm-.3-2.144V7.68h.6V5.836h-.6zm-4.721 24.8c-1.63 0-2.95-1.311-2.95-2.917h-.6c0 1.943 1.594 3.516 3.55 3.516v-.6zm2.95-2.917c0 1.606-1.32 2.916-2.95 2.916v.6c1.956 0 3.55-1.573 3.55-3.516h-.6zm-2.95-2.916c1.63 0 2.95 1.31 2.95 2.916h.6c0-1.943-1.594-3.516-3.55-3.516v.6zM8.8 27.719c0-1.606 1.32-2.916 2.95-2.916v-.6c-1.956 0-3.55 1.573-3.55 3.516h.6zm26.15 0c0 1.943 1.594 3.516 3.55 3.516v-.6c-1.63 0-2.95-1.31-2.95-2.916h-.6zm3.55-3.516c-1.956 0-3.55 1.573-3.55 3.516h.6c0-1.606 1.32-2.916 2.95-2.916v-.6zm3.55 3.516c0-1.943-1.594-3.516-3.55-3.516v.6c1.63 0 2.95 1.31 2.95 2.916h.6zm-3.55 3.516c1.956 0 3.55-1.573 3.55-3.516h-.6c0 1.606-1.32 2.916-2.95 2.916v.6zm4.982-4.306c-.385-2.384-2.47-4.21-4.982-4.21v.6c2.215 0 4.051 1.61 4.39 3.706l.592-.096zm5.768-.252h-6.065v.6h6.065v-.6zm-.3-.195v.495h.6v-.495h-.6zm-4.2.3h4.5v-.6h-4.5v.6zm-.3-1.784v1.484h.6v-1.484h-.6zm3.8-.3h-3.5v.6h3.5v-.6zm-.3-2.42v2.72h.6v-2.72h-.6zm-.687-4.11a12.64 12.64 0 01.687 4.11h.6c0-1.507-.256-2.952-.72-4.305l-.567.195zM36 18.371h11.547v-.6H36v.6zm-2.05-2.032c0 1.123.922 2.032 2.05 2.032v-.6c-.802 0-1.45-.646-1.45-1.432h-.6zm0-3.958v3.958h.6V12.38h-.6zM36 10.349c-1.128 0-2.05.908-2.05 2.032h.6c0-.787.648-1.432 1.45-1.432v-.6zm5.111 0H36v.6h5.111v-.6zm-6.113-.885c2.154 0 4.187.527 5.976 1.451l.275-.533a13.594 13.594 0 00-6.251-1.518v.6zm-25.496 0h25.496v-.6H9.502v.6zM5.05 13.867c0-2.423 1.994-4.403 4.452-4.403v-.6c-2.784 0-5.052 2.242-5.052 5.003h.6zm0 2.72v-2.72h-.6v2.72h.6zm7.235-.3H4.75v.6h7.535v-.6zm.3 1.784v-1.485h-.6v1.485h.6zm-7.835.3h7.535v-.6H4.75v.6zm.3 6.627V18.07h-.6v6.927h.6zm.7-.3h-1v.6h1v-.6zm.3 1.784v-1.484h-.6v1.484h.6zm-3.3.3h3v-.6h-3v.6zm.3.195v-.495h-.6v.495h.6zm4.014-.3H2.75v.6h4.314v-.6zm4.686-3.958c-2.512 0-4.595 1.826-4.982 4.21l.592.096c.34-2.096 2.175-3.706 4.39-3.706v-.6zm4.982 4.21c-.385-2.384-2.47-4.21-4.982-4.21v.6c2.215 0 4.051 1.61 4.39 3.706l.592-.096zm17.082-.252H16.435v.6h17.38v-.6zm4.686-3.958c-2.511 0-4.595 1.826-4.982 4.21l.593.096c.34-2.096 2.174-3.706 4.389-3.706v-.6z"/><path fill-rule="evenodd" clip-rule="evenodd" d="M23.75 12.38v3.958c0 .955-.785 1.732-1.75 1.732h-5c-.965 0-1.75-.777-1.75-1.732V12.38c0-.955.785-1.732 1.75-1.732h5c.965 0 1.75.777 1.75 1.732zm-7 0v3.958c0 .136.115.248.25.248h5c.135 0 .25-.114.25-.247V12.38a.253.253 0 00-.25-.247h-5a.253.253 0 00-.25.247z"/><path d="M24.05 16.338V12.38h-.6v3.958h.6zM22 18.37c1.128 0 2.05-.908 2.05-2.032h-.6c0 .787-.648 1.432-1.45 1.432v.6zm-5 0h5v-.6h-5v.6zm-2.05-2.032c0 1.124.922 2.032 2.05 2.032v-.6c-.802 0-1.45-.645-1.45-1.431h-.6zm0-3.958v3.958h.6V12.38h-.6zM17 10.348c-1.128 0-2.05.909-2.05 2.032h.6c0-.786.648-1.432 1.45-1.432v-.6zm5 0h-5v.6h5v-.6zm2.05 2.032A2.043 2.043 0 0022 10.348v.6c.802 0 1.45.646 1.45 1.432h.6zm-7 3.958V12.38h-.6v3.958h.6zm-.05-.052c.017 0 .028.007.035.013.007.007.015.02.015.04h-.6c0 .305.254.547.55.547v-.6zm5 0h-5v.6h5v-.6zm-.05.052c0-.02.009-.033.015-.039a.05.05 0 01.035-.013v.6c.297 0 .55-.245.55-.547h-.6zm0-3.958v3.958h.6V12.38h-.6zm.05.053a.05.05 0 01-.035-.013.055.055 0 01-.015-.04h.6a.553.553 0 00-.55-.547v.6zm-5 0h5v-.6h-5v.6zm.05-.053a.055.055 0 01-.015.04.05.05 0 01-.035.013v-.6a.553.553 0 00-.55.547h.6z"/><path fill-rule="evenodd" clip-rule="evenodd" d="M26.5 10.648h5c.965 0 1.75.777 1.75 1.732v3.958c0 .955-.785 1.732-1.75 1.732h-5c-.965 0-1.75-.777-1.75-1.732V12.38c0-.955.785-1.732 1.75-1.732zm5 5.938c.135 0 .25-.114.25-.247V12.38a.253.253 0 00-.25-.247h-5a.253.253 0 00-.25.247v3.958c0 .134.115.248.25.248h5z"/><path d="M31.5 10.348h-5v.6h5v-.6zm2.05 2.032a2.043 2.043 0 00-2.05-2.032v.6c.802 0 1.45.646 1.45 1.432h.6zm0 3.958V12.38h-.6v3.958h.6zM31.5 18.37c1.128 0 2.05-.908 2.05-2.032h-.6c0 .787-.648 1.432-1.45 1.432v.6zm-5 0h5v-.6h-5v.6zm-2.05-2.032c0 1.124.922 2.032 2.05 2.032v-.6c-.802 0-1.45-.645-1.45-1.431h-.6zm0-3.958v3.958h.6V12.38h-.6zm2.05-2.032c-1.128 0-2.05.909-2.05 2.032h.6c0-.786.648-1.432 1.45-1.432v-.6zm4.95 5.99c0-.02.009-.033.015-.039a.05.05 0 01.035-.013v.6c.297 0 .55-.245.55-.547h-.6zm0-3.958v3.958h.6V12.38h-.6zm.05.053a.05.05 0 01-.035-.013.055.055 0 01-.015-.04h.6a.553.553 0 00-.55-.547v.6zm-5 0h5v-.6h-5v.6zm.05-.053a.055.055 0 01-.015.04.05.05 0 01-.035.013v-.6a.553.553 0 00-.55.547h.6zm0 3.958V12.38h-.6v3.958h.6zm-.05-.052a.05.05 0 01.035.013.055.055 0 01.015.04h-.6c0 .302.253.547.55.547v-.6zm5 0h-5v.6h5v-.6z"/><path fill-rule="evenodd" clip-rule="evenodd" d="M36.5 27.719c0-1.092.897-1.98 2-1.98s2 .89 2 1.98c0 1.092-.897 1.979-2 1.979s-2-.887-2-1.98zm1.5 0a.5.5 0 001 0 .498.498 0 00-.5-.495c-.275 0-.5.222-.5.495z"/><path d="M38.5 25.44c-1.266 0-2.3 1.018-2.3 2.279h.6c0-.924.76-1.68 1.7-1.68v-.6zm2.3 2.279c0-1.259-1.034-2.28-2.3-2.28v.6c.94 0 1.7.758 1.7 1.68h.6zm-2.3 2.279c1.266 0 2.3-1.019 2.3-2.28h-.6c0 .924-.76 1.68-1.7 1.68v.6zm-2.3-2.28a2.292 2.292 0 002.3 2.28v-.6c-.94 0-1.7-.756-1.7-1.68h-.6zm2.3.196a.198.198 0 01-.2-.195h-.6c0 .441.362.795.8.795v-.6zm.2-.195a.198.198 0 01-.2.195v.6c.438 0 .8-.354.8-.795h-.6zm-.2-.195c.113 0 .2.09.2.195h.6a.798.798 0 00-.8-.795v.6zm-.2.195c0-.104.087-.195.2-.195v-.6c-.438 0-.8.354-.8.795h.6z"/><path fill-rule="evenodd" clip-rule="evenodd" d="M9.75 27.719c0-1.092.896-1.98 2-1.98s2 .89 2 1.98c0 1.092-.896 1.979-2 1.979s-2-.89-2-1.98zm1.5 0a.5.5 0 001 0 .498.498 0 00-.5-.495c-.275 0-.5.222-.5.495z"/><path d="M11.75 25.44c-1.266 0-2.3 1.018-2.3 2.279h.6c0-.924.76-1.68 1.7-1.68v-.6zm2.3 2.279c0-1.259-1.034-2.28-2.3-2.28v.6c.94 0 1.7.758 1.7 1.68h.6zm-2.3 2.279c1.266 0 2.3-1.019 2.3-2.28h-.6c0 .924-.76 1.68-1.7 1.68v.6zm-2.3-2.28c0 1.26 1.034 2.28 2.3 2.28v-.6c-.94 0-1.7-.758-1.7-1.68h-.6zm2.3.196a.198.198 0 01-.2-.195h-.6c0 .441.362.795.8.795v-.6zm.2-.195a.198.198 0 01-.2.195v.6c.438 0 .8-.354.8-.795h-.6zm-.2-.195c.113 0 .2.09.2.195h.6a.798.798 0 00-.8-.795v.6zm-.2.195c0-.104.087-.195.2-.195v-.6c-.438 0-.8.354-.8.795h.6zM17.25 24.997h15.5v1.485h-15.5v-1.485z"/></symbol><symbol viewBox="0 0 40 40" id="nav-icon-3" xmlns="http://www.w3.org/2000/svg"><path d="M39.037 32.188H30.75a.484.484 0 000 .97h8.287a.484.484 0 000-.97zm0 6.152h-9.291a.484.484 0 000 .97h9.291a.484.484 0 000-.97zM1.481 35.692h7.493a.484.484 0 000-.971H1.481a.484.484 0 00-.481.485c0 .27.216.486.481.486z"/><path fill-rule="evenodd" clip-rule="evenodd" d="M4.745.535A.478.478 0 015.3.627a.49.49 0 01.088.562 4.263 4.263 0 00-.45 1.91c0 2.378 1.93 4.314 4.3 4.314a4.25 4.25 0 001.907-.453.478.478 0 01.555.092.488.488 0 01.09.56 5.231 5.231 0 01-4.711 2.94c-2.902 0-5.263-2.372-5.263-5.286A5.258 5.258 0 014.745.535zm5.383 7.772a5.155 5.155 0 01-.89.076c-2.902 0-5.262-2.37-5.26-5.284 0-.303.024-.6.075-.894a4.286 4.286 0 00-1.274 3.061c0 2.38 1.93 4.315 4.3 4.315a4.256 4.256 0 003.049-1.274z"/><path d="M5.3.627l-.178.177.006.005L5.3.627zM4.745.535l.111.223-.111-.223zM5.3.628l.179-.175-.007-.007L5.3.628zm.088.56l-.223-.111.223.112zm5.757 5.772l.112.223-.112-.223zm.555.092l-.177.177.177-.177zm.09.56l-.223-.111.223.11zm-2.552.77v-.25h-.484l.28.396.204-.145zm.89-.075l.178.175.546-.555-.767.134.043.246zm-.89.076v.25h.484l-.28-.395-.204.145zm-5.26-5.284h.25-.25zm.075-.894l.246.042.133-.768-.555.548.176.178zM5.477.45a.728.728 0 00-.844-.14l.223.447a.228.228 0 01.266.046L5.477.45zM5.472.446l-.344.363.344-.363zm.14.855a.74.74 0 00-.134-.848l-.357.35a.24.24 0 01.044.274l.447.224zM5.189 3.1c0-.627.141-1.232.423-1.8l-.448-.222A4.513 4.513 0 004.69 3.1h.5zm4.05 4.063c-2.232 0-4.05-1.823-4.05-4.063h-.5c0 2.514 2.04 4.563 4.55 4.563v-.5zm1.795-.427a3.996 3.996 0 01-1.796.427v.5a4.49 4.49 0 002.019-.48l-.223-.447zm.844.14a.728.728 0 00-.844-.14l.223.447a.228.228 0 01.266.046l.355-.353zm.136.847a.738.738 0 00-.136-.847l-.355.353a.238.238 0 01.043.272l.448.222zM7.08 10.802a5.481 5.481 0 004.936-3.08l-.449-.221a4.981 4.981 0 01-4.487 2.801v.5zM1.566 5.266c0 3.051 2.472 5.536 5.513 5.536v-.5c-2.763 0-5.013-2.259-5.013-5.036h-.5zM4.633.311a5.508 5.508 0 00-3.067 4.955h.5A5.01 5.01 0 014.856.758L4.633.311zm4.605 8.322c.315 0 .624-.026.933-.08l-.086-.492c-.279.048-.56.072-.847.072v.5zm.204-.395l-.408.29.408-.29zM3.727 3.1c-.002 3.051 2.47 5.534 5.511 5.534v-.5c-2.763 0-5.012-2.257-5.01-5.033h-.5zm.08-.937a5.49 5.49 0 00-.08.937h.5c0-.29.024-.573.072-.852l-.493-.085zm-.778 3.104c0-1.108.442-2.136 1.2-2.884l-.352-.355a4.536 4.536 0 00-1.348 3.24h.5zm4.05 4.065c-2.231 0-4.05-1.823-4.05-4.065h-.5c0 2.517 2.041 4.565 4.55 4.565v-.5zm2.87-1.2a4.006 4.006 0 01-2.87 1.2v.5c1.24 0 2.389-.496 3.227-1.349l-.357-.35z"/><path fill-rule="evenodd" clip-rule="evenodd" d="M39.039 24.41h-.002a.484.484 0 00-.481.483l-.012 2.592L20.677.923c-.179-.267-.617-.267-.797 0L2.025 27.466l.012-2.75a.483.483 0 00-.48-.488h-.002a.484.484 0 00-.481.483l-.017 4.342a.486.486 0 00.481.487.485.485 0 00.399-.212l2.81-4.177v3.905c0 .268.216.486.481.486h10.724a4.368 4.368 0 004.168 3.094l.019-.001a.226.226 0 01.028 0h.027l.01-.002a4.366 4.366 0 004.081-3.091H35.33a.484.484 0 00.482-.486v-3.905l2.81 4.177a.477.477 0 00.538.191.485.485 0 00.34-.463l.019-4.159a.482.482 0 00-.48-.487zm-18.806 7.25h-.006l-.07.003a1.535 1.535 0 01-1.512-1.531c0-.552.805-1.822 1.531-2.78.726.958 1.531 2.228 1.531 2.78 0 .824-.656 1.497-1.474 1.528zm2.435-1.53c0 .144-.018.28-.041.417.551-.607.89-1.409.886-2.29 0-1.454-2.19-4.548-3.397-6.088-1.205 1.54-3.397 4.636-3.397 6.088 0 .955.397 1.82 1.031 2.44a2.567 2.567 0 01-.07-.567c0-1.229 1.77-3.437 2.124-3.868a.496.496 0 01.741 0c.355.43 2.123 2.64 2.123 3.868zm-2.177-9.041a.496.496 0 00-.742 0c-.408.495-3.989 4.908-3.989 7.168 0 .076.005.151.01.226l.005.089h-4.848v-3.2c.628-.512 2.71-2.287 4.818-4.92 1.712-2.137 3.666-5.157 4.552-8.6.886 3.445 2.84 6.463 4.551 8.6 2.109 2.633 4.19 4.408 4.82 4.92v3.2h-5.205c.007-.104.015-.209.015-.315.002-2.26-3.58-6.673-3.987-7.168zm10.137 7.483h4.22l.003-4.852L20.28 2.061 5.71 23.721v4.85h4.252v-3.435c0-.151.07-.293.188-.384.117-.093 9.663-7.635 9.663-16.562 0-.267.217-.485.482-.485s.481.218.481.485c0 8.924 9.54 16.464 9.663 16.561a.49.49 0 01.189.385v3.436z"/><path d="M39.039 24.41v.25h.011l-.011-.25zm-.483.483l-.25-.001.25.001zm-.012 2.592l-.207.14.454.674.003-.813-.25-.001zM20.677.923l-.208.14.208-.14zm-.797 0l-.208-.14v.001l.208.14zM2.025 27.466l-.25-.001-.003.826.46-.686-.207-.14zm.012-2.75l-.25-.003v.001l.25.001zm-.963-.005l-.25-.001.25.001zm-.017 4.342l.25.002v-.001l-.25-.001zm.338.466l.077-.238-.077.238zm.542-.191l.206.14h.001l-.207-.14zm2.81-4.177h.25v-.82l-.458.68.208.14zm11.205 4.39l.24-.072-.055-.177h-.185v.25zm4.187 3.094l.02.249-.02-.25zm0 0l-.02-.25.02.25zm.028 0l-.036.247.009.001.027-.248zm0 0l.031-.248h-.003l-.028.248zm0 0l.036-.248h-.005l-.03.248zm.027 0l.033.247h.003l-.036-.248zm.01-.002l.037.247h.001l-.037-.247zm.029-.003v.25h.006l-.006-.25zm4.053-3.088v-.25h-.185l-.054.177.24.073zm11.526-4.39l.207-.14-.457-.68v.82h.25zm2.81 4.175l.207-.139-.207.14zm.538.192l.074.239-.075-.239zm.34-.463h-.25.25zm.019-4.159l-.25-.002v.001l.25.001zm-.48-.487l.002-.25h-.013l.011.25zm-18.812 7.25l-.018-.25.018.25zm.006 0l.056-.244-.037-.009-.037.003.018.25zm-.076.003l-.003.25h.003v-.25zm.02-4.31l.199-.152-.2-.262-.199.262.2.151zm.056 4.307l-.056.243.032.008.033-.002-.01-.25zm2.394-1.113l.242.064.003-.012.002-.012-.247-.04zm0 0l-.241-.065.426.233-.185-.168zm.886-2.29h-.25.25zm-3.397-6.088l.197-.154-.197-.25-.197.25.197.154zm-2.366 8.527l-.175.18.605.59-.186-.824-.244.055zm2.054-4.434l-.193-.159.193.16zm.741 0l-.193.16.193-.16zm-.796-5.173l.193.159-.193-.16zm.742 0l-.194.159.075.09h.119v-.25zm-4.721 7.394h.25v-.016l-.25.016zm0 0h-.25v.016l.25-.016zm.005.089v.25h.264l-.014-.264-.25.014zm-4.848 0h-.25v.25h.25v-.25zm0-3.2l-.158-.194-.092.075v.119h.25zm4.818-4.92l-.195-.156.195.156zm4.552-8.6l.242-.062h-.484l.242.063zm4.551 8.6l.196-.156-.196.156zm4.82 4.92h.25v-.12l-.093-.074-.158.194zm0 3.2v.25h.25v-.25h-.25zm-5.205 0l-.25-.018-.019.268h.269v-.25zm.015-.315h-.25.25zm-3.987-7.168l.192-.16-.075-.09h-.117v.25zm14.357 7.483v.25h.25v-.25h-.25zm-4.22 0h-.25v.25h.25v-.25zm4.223-4.852h.25v-.076l-.043-.063-.207.14zM20.28 2.061l.207-.14-.208-.308-.207.309.207.14zM5.71 23.721l-.208-.14-.042.063v.076h.25zm0 4.85h-.25v.25h.25v-.25zm4.252 0v.25h.25v-.25h-.25zm.188-3.82l.152.199.003-.002-.155-.196zm0 0l.155.197-.155-.197zm20.29 0l.154-.196-.155.196zm0 0l-.156.197h.001l.155-.196zm8.597-.091h.002v-.5h-.002v.5zm-.231.235c0-.133.106-.235.231-.235v-.5a.734.734 0 00-.731.732l.5.003zm-.012 2.59l.012-2.59-.5-.003-.012 2.592.5.002zM20.47 1.064l17.867 26.561.415-.279L20.884.784l-.414.279zm-.383 0a.228.228 0 01.192-.09c.087 0 .155.037.19.09l.416-.278a.723.723 0 00-.606-.312.727.727 0 00-.607.31l.415.28zM2.233 27.606L20.087 1.063l-.415-.279L1.818 27.326l.415.28zm-.446-2.892l-.012 2.75.5.003.012-2.75-.5-.003zm-.23-.236c.124 0 .23.105.23.235l.5.004a.733.733 0 00-.73-.74v.5zm-.002 0h.002v-.5h-.002v.5zm-.231.235c0-.133.106-.235.231-.235v-.5a.734.734 0 00-.731.732l.5.003zm-.017 4.34l.017-4.34-.5-.003-.017 4.342.5.002zm.164.228a.236.236 0 01-.164-.226l-.5-.005a.736.736 0 00.512.707l.152-.476zm.067.009a.21.21 0 01-.066-.009l-.154.476a.708.708 0 00.22.033v-.5zm.193-.104a.235.235 0 01-.193.104v.5a.735.735 0 00.605-.321l-.412-.283zm2.808-4.174l-2.81 4.176.415.28 2.81-4.177-.415-.28zm.458 4.044v-3.905h-.5v3.905h.5zm.231.236a.234.234 0 01-.231-.236h-.5c0 .404.326.736.731.736v-.5zm10.724 0H5.228v.5h10.724v-.5zm4.168 3.094a4.118 4.118 0 01-3.929-2.917l-.478.146a4.618 4.618 0 004.407 3.27v-.5zm0 0v.5l.038-.002-.038-.498zm-.002 0l.042.498-.042-.498zm.04-.002l-.038.002.038.498v-.5zm.045.003l-.013-.001a.29.29 0 00-.032-.002v.5l-.024-.002h-.003l.072-.495zm-.008 0l-.055.496.055-.497zm.003 0l-.062.496.062-.496zm-.021-.001h.023l.003.001-.071.495.012.002.033.002v-.5zm-.015 0h.015v.5c.02 0 .039-.002.05-.004l-.065-.496zm.007 0h-.01l.071.496.01-.002-.071-.495zm.064-.006c-.031 0-.06.005-.066.006l.075.494h.005-.014v-.5zm3.814-2.911a4.116 4.116 0 01-3.82 2.911l.012.5a4.616 4.616 0 004.286-3.265l-.478-.146zm11.283-.177H24.286v.5H35.33v-.5zm.232-.236a.234.234 0 01-.232.236v.5a.734.734 0 00.732-.736h-.5zm0-3.905v3.905h.5v-3.905h-.5zm3.267 4.037l-2.81-4.176-.415.279 2.81 4.176.415-.279zm.256.092a.227.227 0 01-.256-.092l-.415.279c.18.267.512.387.82.29l-.149-.477zm.165-.224a.235.235 0 01-.165.224l.149.478a.735.735 0 00.516-.702h-.5zm.019-4.16l-.019 4.16.5.002.019-4.16-.5-.002zm-.232-.236a.23.23 0 01.232.235l.5.004a.732.732 0 00-.728-.74l-.004.5zm.013 0l-.022-.5.022.5zm-18.805 7.25l.006-.001-.036-.499h-.006l.036.5zm-.088.003c.034 0 .066-.002.088-.004l-.036-.498a.75.75 0 01-.052.002v.5zm-1.762-1.781c0 .975.788 1.768 1.76 1.781l.006-.5a1.285 1.285 0 01-1.266-1.281h-.5zm1.582-2.93c-.367.484-.756 1.05-1.055 1.567-.15.259-.278.51-.37.735-.09.22-.157.44-.157.628h.5c0-.088.035-.234.119-.438a5.83 5.83 0 01.341-.675c.286-.495.662-1.043 1.02-1.515l-.398-.303zm1.98 2.93c0-.189-.066-.408-.155-.628a6.32 6.32 0 00-.371-.735 15.773 15.773 0 00-1.055-1.568l-.399.302c.359.473.735 1.021 1.02 1.516.143.248.26.478.342.675.084.204.118.35.118.438h.5zm-1.715 1.777a1.782 1.782 0 001.715-1.777h-.5c0 .689-.549 1.252-1.233 1.278l.018.5zm-.065-.006l.112-.487-.112.487zm2.697-1.316a2.78 2.78 0 00.044-.457h-.5c0 .123-.016.243-.038.376l.494.081zm-.005.024l-.483-.129.483.13zm.394-2.353a3.125 3.125 0 01-.821 2.12l.37.337c.59-.65.955-1.512.95-2.46l-.5.003zm-3.344-5.934a33.37 33.37 0 012.135 3.051c.346.568.65 1.129.868 1.633.221.51.34.938.34 1.249h.5c0-.416-.153-.92-.38-1.448a14.257 14.257 0 00-.901-1.694 33.842 33.842 0 00-2.168-3.1l-.394.309zm-2.95 5.933c0-.31.12-.738.341-1.248a13.78 13.78 0 01.87-1.633 33.571 33.571 0 012.133-3.053l-.394-.308a34.077 34.077 0 00-2.167 3.1c-.352.58-.67 1.162-.9 1.695-.229.527-.383 1.031-.383 1.447h.5zm.956 2.26a3.156 3.156 0 01-.956-2.26h-.5c0 1.026.427 1.954 1.106 2.618l.35-.357zm-.495-.387c0 .219.032.426.076.621l.488-.11a2.32 2.32 0 01-.064-.511h-.5zm2.18-4.026c-.178.218-.716.886-1.21 1.658a9.275 9.275 0 00-.666 1.204c-.176.398-.304.804-.304 1.164h.5c0-.255.095-.585.261-.961.165-.37.39-.764.63-1.137a17.994 17.994 0 011.176-1.611l-.386-.317zm1.128 0a.745.745 0 00-1.127 0l.386.317c.082-.1.273-.1.355 0l.386-.317zm2.18 4.026c0-.36-.127-.766-.303-1.164a9.248 9.248 0 00-.664-1.204 18.2 18.2 0 00-1.213-1.659l-.386.319c.175.211.699.862 1.177 1.61.24.373.465.766.63 1.137.166.376.26.706.26.96h.5zm-2.976-8.882c.083-.1.273-.1.355 0l.386-.318a.745.745 0 00-1.127 0l.386.318zm-3.932 7.009c0-.51.205-1.168.543-1.899.335-.724.788-1.492 1.258-2.21a35.36 35.36 0 012.131-2.9l-.385-.318c-.207.25-1.21 1.485-2.165 2.944-.476.73-.944 1.52-1.293 2.274-.346.748-.589 1.488-.589 2.109h.5zm.01.21a3.285 3.285 0 01-.01-.21h-.5c0 .085.006.169.01.242l.5-.032zm0 .016h-.5.5zm.005.075l-.006-.09-.499.031.006.086.499-.027zm-5.098.264h4.848v-.5h-4.848v.5zm-.25-3.45v3.2h.5v-3.2h-.5zm4.873-5.076c-2.093 2.615-4.161 4.377-4.781 4.882l.316.387c.636-.518 2.732-2.305 4.856-4.957l-.39-.312zm4.505-8.506c-.874 3.395-2.804 6.383-4.505 8.506l.39.312c1.723-2.15 3.7-5.202 4.599-8.693l-.484-.125zm4.989 8.506c-1.7-2.123-3.631-5.11-4.505-8.506l-.484.125c.898 3.493 2.876 6.543 4.598 8.693l.39-.312zm4.781 4.882c-.62-.506-2.688-2.267-4.781-4.882l-.39.312c2.122 2.652 4.219 4.439 4.855 4.957l.316-.387zm.092 3.394v-3.2h-.5v3.2h.5zm-5.454.25h5.204v-.5h-5.204v.5zm-.235-.565c0 .096-.007.191-.015.297l.5.036c.006-.103.015-.216.015-.333h-.5zm-3.93-7.01a35.4 35.4 0 012.13 2.901c.47.718.923 1.486 1.258 2.21.338.73.542 1.39.542 1.899h.5c0-.62-.242-1.36-.588-2.109-.349-.754-.816-1.544-1.293-2.273a35.884 35.884 0 00-2.164-2.945l-.385.318zm.193.092v-.5.5zm14.357 6.983h-4.22v.5h4.22v-.5zm-.247-4.602l-.003 4.851h.5l.003-4.85h-.5zM20.073 2.2l14.57 21.66.415-.28-14.57-21.658-.415.279zM5.917 23.86L20.487 2.2l-.414-.278L5.503 23.58l.414.279zm.043 4.712V23.72h-.5v4.852h.5zm4.002-.25H5.71v.5h4.252v-.5zm-.25-3.186v3.436h.5v-3.436h-.5zm.286-.583a.734.734 0 00-.286.583h.5c0-.075.034-.143.09-.186l-.304-.397zm-.002.002l.309.393-.31-.393zM19.563 8.19c0 4.379-2.344 8.44-4.733 11.438-2.384 2.992-4.783 4.887-4.835 4.927l.31.393c.066-.052 2.498-1.974 4.916-5.008 2.414-3.029 4.842-7.202 4.842-11.75h-.5zm.732-.735a.734.734 0 00-.732.735h.5c0-.131.107-.235.232-.235v-.5zm.731.735a.734.734 0 00-.731-.735v.5c.125 0 .231.104.231.235h.5zm9.568 16.365c-.054-.043-2.453-1.939-4.837-4.93-2.388-2.997-4.73-7.058-4.73-11.435h-.5c0 4.547 2.426 8.718 4.84 11.746 2.416 3.034 4.849 4.957 4.917 5.011l.31-.392zm.001 0l-.311.392.311-.391zm.283.581a.74.74 0 00-.284-.581l-.309.393a.24.24 0 01.093.188h.5zm0 3.436v-3.436h-.5v3.436h.5z"/><path fill-rule="evenodd" clip-rule="evenodd" d="M27.596 34.433a.488.488 0 01-.304.622l-1.781.593 1.711.487a.486.486 0 01.331.605l-.615 2.09a.48.48 0 01-.592.327l-6.128-1.746-5.624 1.875a.474.474 0 01-.602-.301l-.709-2.061a.487.487 0 01.303-.62l1.486-.495-1.785-.508a.485.485 0 01-.331-.605l.615-2.089a.48.48 0 01.592-.33l6.201 1.767 5.917-1.973a.48.48 0 01.606.301l.709 2.06zM14.359 33.34l-.342 1.158 2.686.766 2.03-.677-4.374-1.247zm12.131 3.594l-.342 1.159-4.3-1.227 2.032-.677 2.61.745zm-12.14.137l.393 1.143 11.783-3.928-.393-1.143-11.783 3.928z"/><path d="M27.573 34.806l-.224-.11-.173.354.393.006.005-.25zm.023-.373l-.236.081v.003l.236-.084zm-.022.373l.224.111.176-.354-.396-.007-.004.25zm-.282.249l.079.237-.08-.237zm-1.781.593l-.08-.237-.768.256.78.221.068-.24zm1.711.487l.07-.24h-.002l-.068.24zm.331.605l.24.07v-.001l-.24-.069zm-.615 2.09l.24.07-.24-.07zm-.592.327l-.069.24.005.002.064-.242zm-6.128-1.746l.068-.24-.074-.021-.073.024.079.237zm-5.624 1.875l-.079-.237-.003.001.082.236zm-.602-.301l.238-.078-.001-.004-.237.082zm-.709-2.061l.237-.081-.001-.003-.236.084zm.023-.374l.225.11v-.001l-.225-.109zm.28-.246l-.079-.237h-.002l.081.237zm1.486-.495l.079.237.768-.255-.779-.222-.068.24zm-1.785-.508l-.07.24h.002l.068-.24zm-.292-.233l.22-.12-.22.12zm-.039-.372l-.24-.07v.002l.24.068zm.615-2.089l.24.07-.24-.07zm.592-.33l.069-.24-.069.24zm6.201 1.767l-.068.24.074.022.073-.025-.079-.237zm5.917-1.973l-.079-.237.08.237zm.606.301l.236-.081-.236.081zM14.017 34.5l-.24-.07-.071.241.242.07.069-.24zm.342-1.158l.069-.24-.238-.068-.07.237.24.07zm2.344 1.924l-.069.24.074.022.074-.025-.08-.237zm2.03-.677l.08.237.768-.255-.779-.222-.068.24zm7.415 3.506l-.069.24.238.068.07-.238-.24-.07zm.342-1.159l.24.071.071-.242-.242-.07-.069.241zm-4.642-.068l-.079-.237-.767.255.778.222.068-.24zm2.032-.677l.068-.24-.074-.021-.073.024.079.237zm-9.137 2.025l-.236.081.08.234.235-.078-.08-.237zm-.393-1.143l-.08-.237-.239.08.082.238.237-.081zm12.176-2.785l.08.237.239-.08-.082-.239-.237.082zm-.393-1.143l.237-.082-.081-.234-.235.078.08.238zm1.665 1.772c.085-.174.1-.38.034-.567l-.472.168a.236.236 0 01-.011.18l.45.219zm-.22-.36l-.009.5.009-.5zm-.207.736a.74.74 0 00.427-.375l-.448-.222a.238.238 0 01-.138.123l.16.474zm-1.781.593l1.78-.593-.157-.474-1.782.593.159.474zm1.7.01l-1.711-.487-.137.48 1.712.488.137-.481zm.443.354a.736.736 0 00-.441-.354l-.14.48a.236.236 0 01.142.113l.44-.24zm.06.56a.741.741 0 00-.06-.56l-.439.24c.03.053.037.118.019.182l.48.138zm-.615 2.09l.615-2.088-.48-.142-.615 2.09.48.14zm-.7.527a.73.73 0 00.7-.526l-.48-.142a.23.23 0 01-.22.168v.5zm-.196-.027a.772.772 0 00.195.027v-.5a.277.277 0 01-.068-.01l-.127.483zm-6.132-1.75l6.128 1.747.137-.481-6.128-1.746-.137.48zm-5.476 1.872l5.624-1.875-.158-.474-5.624 1.875.158.474zm-.23.038a.704.704 0 00.234-.039l-.165-.472a.207.207 0 01-.068.01v.5zm-.688-.499c.1.309.386.499.689.499v-.5a.224.224 0 01-.214-.154l-.475.155zm-.708-2.057l.709 2.06.473-.162-.71-2.06-.472.162zm.034-.564a.737.737 0 00-.033.567l.47-.168a.236.236 0 01.012-.18l-.449-.22zm.424-.374a.73.73 0 00-.425.375l.451.217a.231.231 0 01.136-.118l-.162-.474zm1.488-.495l-1.486.495.158.474 1.486-.495-.158-.474zm-1.774-.03l1.784.508.137-.481-1.785-.508-.136.48zm-.443-.354a.735.735 0 00.441.353l.14-.48a.236.236 0 01-.142-.113l-.439.24zm-.06-.56a.741.741 0 00.06.56l.439-.24a.242.242 0 01-.019-.183l-.48-.137zm.615-2.091l-.615 2.089.48.141.615-2.09-.48-.14zm.9-.5a.73.73 0 00-.9.5l.48.14a.23.23 0 01.284-.16l.137-.48zm6.202 1.767l-6.201-1.767-.137.48 6.2 1.768.138-.481zm5.77-1.97l-5.918 1.973.159.474 5.916-1.973-.158-.474zm.92.457a.73.73 0 00-.92-.457l.157.474a.23.23 0 01.29.146l.473-.163zm.71 2.06l-.71-2.06-.472.163.709 2.06.472-.163zm-13.576.22l.342-1.16-.48-.14-.342 1.157.48.142zm2.514.454l-2.686-.766-.137.48 2.686.767.137-.481zm1.884-.674l-2.031.677.158.474 2.03-.677-.157-.474zm-4.364-.77l4.374 1.248.137-.481-4.374-1.248-.137.481zm12.097 4.583l.342-1.158-.48-.142-.342 1.159.48.141zm-4.608-1.057l4.3 1.227.136-.48-4.3-1.227-.136.48zm2.02-1.154l-2.03.677.157.474 2.032-.677-.158-.474zm2.759.742l-2.61-.745-.138.48 2.61.746.138-.481zm-11.58 1.439l-.393-1.144-.473.163.394 1.143.472-.162zm11.468-4.084l-11.783 3.928.158.474 11.783-3.928-.158-.474zm-.55-.825l.393 1.143.473-.163-.393-1.143-.473.163zM14.43 37.308l11.783-3.928-.158-.474-11.783 3.928.158.474z"/></symbol><symbol viewBox="0 0 17 44" id="nav-icon-4" xmlns="http://www.w3.org/2000/svg"><path fill-rule="evenodd" clip-rule="evenodd" d="M1 20.583C1 7.503 6.422.445 8.639.444c2.217.001 7.639 7.058 7.639 20.14 0 13.216-4.743 22.176-4.945 22.551l-.196.365H6.141l-.197-.365C5.744 42.76 1 33.8 1 20.583zM7.945 2.288zm0 0v21.768h1.389V2.288c1.777 1.587 5.555 7.36 5.555 18.295 0 3.65-.384 6.98-.93 9.887-.804-1.144-2.282-2.701-4.974-4.24-6.547-3.74-6.467-8.878-6.462-9.095h-.002C3.204 8.42 6.365 3.7 7.945 2.288zm-5.42 21.936a51.331 51.331 0 01-.113-2.526c.993 1.846 2.755 3.951 5.883 5.74 4.446 2.54 5.207 5.054 5.226 5.117a52.613 52.613 0 01-1.087 4.023c-.585-1.036-1.616-2.31-3.437-3.396-5.485-3.265-6.35-8.003-6.472-8.958zm6.808 17.887h.96c.276-.57.835-1.788 1.47-3.542-.135-.578-.784-2.59-3.478-4.194-2.45-1.46-4.061-3.198-5.125-4.826 1.137 6.661 3.2 11.274 3.824 12.562h.96V37.25h1.39v4.861z"/><path d="M8.639.444V.32v.125zm2.694 42.691l.11.06-.11-.06zm-.196.365v.125h.075l.035-.066-.11-.06zm-4.996 0l-.11.059.035.066h.075V43.5zm-.197-.365l-.11.06.11-.06zm2-40.847l-.04-.118-.084.029v.09h.125zm0 0l.084.093-.123-.211.04.118zm0 21.768H7.82v.125h.125v-.125zm1.39 0v.125h.125v-.125h-.125zm0-21.768l.083-.093-.208-.186v.28h.125zm4.625 28.182l-.103.072.17.243.055-.291-.122-.024zm-4.974-4.24l-.062.11.062-.11zm-6.462-9.095l.125.003.003-.128h-.128v.125zm-.002 0l-.124-.01-.01.135h.134v-.125zm-.109 4.563l.11-.059-.235.062.125-.003zm.113 2.526l-.125.01v.006l.125-.016zm5.77 3.213l-.062.109.062-.108zm5.226 5.118l-.12.036.12-.036zm0 0l.122.029.007-.033-.01-.032-.119.037zm-1.087 4.023l-.108.062.141.25.087-.274-.12-.038zm-3.437-3.396l.064-.107-.064.107zm1.297 8.93v.124h.215l-.107-.187-.108.062zm-.96 0h-.126v.124h.125v-.125zm.96-.001l-.113-.054-.029.059.033.057.108-.062zm1.47-3.542l.117.043.013-.035-.008-.036-.122.028zm-3.48-4.194l-.063.107.064-.107zM3.16 29.549l.104-.069-.227.09.123-.021zM6.984 42.11l-.112.055.034.07h.078v-.125zm.96 0v.125h.126v-.125h-.125zm0-4.861v-.125H7.82v.125h.125zm1.39 0h.124v-.125h-.125v.125zM8.638.32c-.309 0-.659.122-1.03.347-.372.225-.774.56-1.19.999-.83.878-1.723 2.18-2.544 3.889-1.641 3.417-3 8.47-3 15.028h.25c0-6.523 1.352-11.54 2.976-14.92.812-1.691 1.69-2.97 2.5-3.825.404-.428.79-.746 1.138-.958.35-.212.654-.31.9-.31V.32zm7.764 20.263c0-6.557-1.36-11.61-3-15.029-.821-1.708-1.713-3.01-2.544-3.888-.416-.439-.818-.774-1.19-1C9.297.443 8.947.32 8.639.32v.25c.246 0 .55.1.9.311.348.212.734.53 1.138.958.81.854 1.688 2.134 2.5 3.825 1.624 3.38 2.976 8.396 2.976 14.92h.25zm-4.96 22.611c.207-.384 4.96-9.365 4.96-22.61h-.25c0 13.187-4.734 22.127-4.93 22.492l.22.118zm-.196.365l.196-.365-.22-.118-.196.364.22.119zm-5.106.066h4.996v-.25H6.141v.25zm-.307-.43l.197.364.22-.118-.196-.365-.22.118zM.875 20.582c0 13.246 4.753 22.227 4.96 22.611l.22-.118c-.197-.366-4.93-9.305-4.93-22.493h-.25zM7.82 2.288h.25-.25zm.085-.118l.08.237-.08-.237zm.123.211l-.166-.186.166.186zm.042 21.675V2.288h-.25v21.768h.25zm1.264-.125h-1.39v.25h1.39v-.25zM9.209 2.288v21.768h.25V2.288h-.25zm5.805 18.295c0-10.961-3.786-16.772-5.597-18.388l-.167.186c1.745 1.558 5.514 7.293 5.514 18.202h.25zm-.933 9.91c.549-2.914.933-6.252.933-9.91h-.25c0 3.64-.383 6.963-.928 9.864l.245.047zM8.923 26.34c2.677 1.53 4.14 3.075 4.933 4.203l.205-.143c-.815-1.16-2.307-2.73-5.014-4.277l-.124.217zm-6.525-9.207c-.006.244-.076 5.435 6.525 9.207l.124-.217c-6.493-3.71-6.404-8.794-6.4-8.984l-.249-.006zm.123.128h.002v-.25h-.002v.25zm5.34-15.065c-1.61 1.438-4.78 6.19-5.464 14.93l.249.02c.68-8.693 3.832-13.379 5.382-14.764l-.167-.186zM2.287 21.701c.02.86.054 1.707.113 2.532l.25-.018a51.216 51.216 0 01-.113-2.52l-.25.006zm6.07 5.628c-3.107-1.777-4.853-3.865-5.835-5.69l-.22.119c1.004 1.866 2.783 3.988 5.931 5.788l.124-.217zm5.284 5.19c-.028-.093-.81-2.632-5.284-5.19l-.124.217c4.417 2.524 5.158 5.011 5.168 5.045l.24-.072zm0 0l-.24.073.24-.073zm-1.087 4.097a52.83 52.83 0 001.089-4.032l-.244-.056a52.572 52.572 0 01-1.084 4.013l.239.075zM8.933 33.29c1.8 1.073 2.817 2.33 3.393 3.35l.217-.123c-.595-1.054-1.64-2.345-3.482-3.442l-.128.215zM2.4 24.24c.124.975 1.002 5.757 6.532 9.05l.128-.215c-5.439-3.238-6.293-7.932-6.412-8.867l-.248.032zm7.893 17.746h-.96v.25h.96v-.25zm-.109.187l.217-.124-.217.124zm1.461-3.646a37.71 37.71 0 01-1.465 3.53l.225.108c.277-.572.838-1.795 1.475-3.553l-.235-.085zM8.22 34.482c2.658 1.583 3.291 3.562 3.421 4.116l.244-.057c-.142-.603-.807-2.648-3.537-4.273l-.128.214zm-5.166-4.865c1.074 1.643 2.699 3.395 5.166 4.865l.128-.215c-2.432-1.449-4.03-3.173-5.085-4.787l-.209.137zm4.042 12.44c-.621-1.281-2.68-5.882-3.814-12.53l-.246.043c1.14 6.676 3.206 11.3 3.835 12.596l.225-.11zm.848-.07h-.96v.25h.96v-.25zM7.82 37.25v4.861h.25V37.25h-.25zm1.513-.125H7.945v.25h1.388v-.25zm.125 4.986V37.25h-.25v4.861h.25z"/></symbol><symbol viewBox="0 0 24 24" id="search" xmlns="http://www.w3.org/2000/svg"><path fill-rule="evenodd" clip-rule="evenodd" d="M23.33 23.33a2.285 2.285 0 000-3.232l-4.716-4.716c-.335-.335-.422-.944-.197-1.36 0 0-.015.063.15-.301a9.68 9.68 0 00.862-4.007A9.713 9.713 0 009.714 0 9.713 9.713 0 000 9.714a9.713 9.713 0 009.714 9.715 9.669 9.669 0 003.996-.857c.368-.166.31-.152.31-.152.422-.226 1.027-.141 1.362.194l4.716 4.716c.893.893 2.34.893 3.232 0zM15.143 9.714a5.429 5.429 0 11-10.858 0 5.429 5.429 0 0110.858 0z"/></symbol><symbol viewBox="0 0 40 25" id="slider-surf" xmlns="http://www.w3.org/2000/svg"><path d="M26.358 4.754l.262-.236c.175-.155.345-.313.51-.469.162-.166.353-.276.521-.417.173-.135.34-.274.509-.399.35-.224.676-.472 1.007-.662.33-.184.638-.387.944-.525l.434-.224.409-.181c.52-.241.95-.388 1.247-.496.297-.096.457-.146.457-.146l.015-.005a.18.18 0 00.116-.116.181.181 0 00-.116-.226s-.18-.057-.509-.117C32 .51 31.792.47 31.551.454c-.243-.02-.526-.05-.84-.04-.158.002-.325-.002-.5.008l-.547.05c-.386.027-.79.115-1.23.204-.224.037-.442.107-.67.177l-.706.22c-.462.194-.968.386-1.46.649-.242.136-.492.278-.743.429l-.38.228-.363.264c-.24.184-.487.37-.738.56-.26.183-.465.42-.703.638l-.701.685c-.212.251-.423.507-.63.771-.205.266-.428.53-.617.812-.181.287-.352.585-.53.882-.168.304-.356.595-.506.918-.146.329-.282.665-.42 1.002a35.75 35.75 0 00-.404 1.016l-.268.954-.27.96-.15.53-.118.436c-.042.147-.075.295-.122.44l-.158.423-.158.427c-.054.142-.124.274-.186.414a12.419 12.419 0 01-1.974 3.037 14.841 14.841 0 01-2.693 2.38c-.976.677-2.008 1.22-3.022 1.678a23.313 23.313 0 01-2.967 1.082 30.126 30.126 0 01-4.696.962 18.65 18.65 0 01-1.824.155.175.175 0 00-.17.151.174.174 0 00.152.195h.004s.68.086 1.87.11c.595.014 1.32.008 2.152-.044a26.64 26.64 0 002.791-.306c2.031-.342 4.422-.962 6.775-2.242 1.174-.637 2.337-1.436 3.375-2.434a15.046 15.046 0 002.694-3.444c.092-.161.191-.317.276-.482l.244-.495c.165-.331.325-.665.457-1.006l.21-.51.052-.128.026-.063.007-.017-.017.051.012-.028.098-.23.395-.917.394-.909c.148-.253.285-.505.42-.756.134-.251.27-.499.392-.752.137-.247.302-.487.447-.73.144-.244.289-.485.424-.729.15-.233.314-.449.463-.673.157-.221.296-.45.448-.668l.485-.607.238-.301c.076-.103.154-.203.242-.288l.506-.535.239-.264z"/><path fill-rule="evenodd" clip-rule="evenodd" d="M38.83 23.451c.636.284 1.007.422 1.007.422a.119.119 0 01.072.153.125.125 0 01-.138.077s-.398-.077-1.08-.251a26.819 26.819 0 01-2.792-.893l-.275-.107a27.668 27.668 0 01-.61-.242l-.432-.19a38.979 38.979 0 01-.503-.22l-.37-.181-.602-.298-.74-.416-.253-.141-.318-.203-.682-.434a26.509 26.509 0 01-.704-.521 66.11 66.11 0 00-.28-.212l-.503-.44-.445-.391a69.294 69.294 0 00-.267-.281 34.278 34.278 0 01-.617-.657l-.404-.516-.201-.26-.103-.13-.025-.031-.014-.017-.002-.005s.017.031-.03-.05l-.006-.008-.041-.063-.326-.5c-.033-.054-.067-.104-.1-.154a2.46 2.46 0 01-.224-.382l-.153-.306c-.161-.317-.324-.637-.41-.964a33.435 33.435 0 00-.044-.13c-.056-.171-.113-.341-.156-.514l-.046-.285-.062-.389a4.58 4.58 0 00-.016-.13 2.792 2.792 0 01-.022-.206l.003-.342.006-.194c.003-.161.007-.321.032-.48.028-.174.064-.343.1-.511l.031-.15c.026-.144.082-.284.138-.42.028-.07.055-.137.079-.205l.12-.299c.028-.064.065-.126.102-.187a10.38 10.38 0 00.154-.256c.076-.126.15-.25.235-.363l.032-.038c.256-.3.5-.586.798-.798.216-.196.468-.329.705-.454.067-.036.133-.07.197-.106.113-.05.228-.089.34-.126A8.955 8.955 0 0029.148 8c.132-.044.259-.087.393-.1a3.723 3.723 0 011.465-.006c.196.042.364.088.507.13a6.638 6.638 0 01.623.304c.06.035.08.111.045.171a.122.122 0 01-.09.062l-.017.003-.29.043c-.076.014-.164.024-.264.036l-.066.007a8.704 8.704 0 00-.133.039c-.091.026-.189.055-.29.08a1.271 1.271 0 00-.328.12 3.441 3.441 0 01-.156.069 1.48 1.48 0 00-.338.176 3.415 3.415 0 01-.17.103c-.117.07-.226.163-.336.256-.053.045-.106.09-.16.133-.05.059-.101.114-.154.168-.1.106-.2.21-.278.344-.276.36-.466.813-.572 1.303a1.49 1.49 0 01-.03.136c-.02.078-.04.155-.038.24l-.007.09a4.494 4.494 0 01-.028.306c-.007.073-.003.15.002.227.003.063.007.126.004.188v.053c0 .052.001.105-.001.158.002.05.01.1.018.151a2.986 2.986 0 01.033.3l.02.214c.037.151.07.306.1.462.03.21.088.399.147.591.032.107.066.214.094.327.017.102.077.233.138.364l.07.154.246.544.03.068.003.005.003.007.069.116.14.23.28.465.378.495.292.38.758.819c.272.254.543.507.813.756l.28.234.563.466.859.637c.29.197.577.39.854.576l.833.519c.173.103.344.2.512.296a29.384 29.384 0 001.72.908c.436.21.818.387 1.136.528zm-9.51-7.466c0-.001 0-.002-.002-.002l.009.014.003.004a.252.252 0 01-.01-.017z"/><path d="M31.488 2.852a7.76 7.76 0 00-1.275.366.09.09 0 00-.057.082.086.086 0 00.087.088c.001 0 .517.003 1.276.091.38.037.815.113 1.273.193.458.103.941.196 1.405.342.116.04.233.072.346.115l.33.146c.22.095.426.2.634.271.211.063.416.118.617.155l.583.093c.185.028.364.038.527.046.158.017.304.027.429.027.25.005.417-.013.417-.013l.007-.002.023-.005a.11.11 0 00.065-.14s-.055-.15-.19-.374a3.516 3.516 0 00-.267-.385 3.618 3.618 0 00-.416-.416 3.753 3.753 0 00-.26-.213c-.096-.06-.192-.128-.298-.186a2.602 2.602 0 00-.69-.31 3.201 3.201 0 00-.796-.129c-.275-.024-.55-.036-.825-.05-.273-.024-.545-.021-.811-.026-.266-.007-.529.02-.78.033-.252.03-.492.043-.72.085a16.01 16.01 0 00-.634.116zm5.622 6.151c.166.074.295.157.425.217.238.133.404.213.404.213l.01.005c.013.007.028.01.045.01a.1.1 0 00.096-.101l-.003-.128c-.005-.084-.01-.208-.044-.36-.036-.147-.08-.335-.172-.528a3.073 3.073 0 00-.358-.625 6.06 6.06 0 00-.257-.318c-.099-.098-.197-.207-.308-.304a3.58 3.58 0 00-.753-.525 4.275 4.275 0 00-.904-.326c-.314-.085-.632-.151-.944-.224a12.705 12.705 0 00-1.837-.293 15.37 15.37 0 00-1.6-.06c-.932.012-1.545.105-1.545.105a.09.09 0 00-.075.07.088.088 0 00.07.103s.6.115 1.476.346c.437.113.94.26 1.47.435.264.085.531.188.804.284.27.1.54.21.803.328.263.12.517.256.751.406.238.147.459.299.682.422.223.121.437.227.651.32l.595.278c.19.09.364.175.517.25zm-.928 2.086a2.324 2.324 0 00-.253-.386 1.62 1.62 0 00-.364-.34c-.14-.1-.31-.16-.477-.225-.17-.056-.34-.111-.505-.173a7.092 7.092 0 00-.981-.274 7.55 7.55 0 00-.866-.128c-.505-.052-.848-.03-.848-.03a.076.076 0 00-.061.042.072.072 0 00.034.096s.301.141.734.367c.214.118.458.26.714.414l.384.243c.132.08.256.173.383.26.121.092.237.194.344.299.1.11.207.207.31.29.102.083.225.138.335.195.108.058.226.1.334.143.103.045.21.081.312.111.103.03.185.065.266.087.16.048.276.068.276.068l.005.001a.096.096 0 00.111-.076s.02-.11.009-.29a1.541 1.541 0 00-.05-.32 2.534 2.534 0 00-.146-.374z"/></symbol><symbol viewBox="0 0 19 25" id="slider-tide" xmlns="http://www.w3.org/2000/svg"><path d="M5.248 15.744a2.702 2.702 0 01-2.7-2.7.575.575 0 011.15 0c0 .856.696 1.553 1.552 1.553.855 0 1.553-.697 1.553-1.552a.575.575 0 011.148 0 2.708 2.708 0 01-2.703 2.699z"/><path d="M9.5 15.744a2.702 2.702 0 01-2.7-2.7.575.575 0 011.15 0c0 .856.696 1.553 1.552 1.553.855 0 1.553-.697 1.553-1.552a.575.575 0 011.148 0A2.708 2.708 0 019.5 15.744z"/><path d="M13.752 15.744a2.702 2.702 0 01-2.7-2.7.575.575 0 011.15 0c0 .856.696 1.553 1.552 1.553.855 0 1.553-.697 1.553-1.552a.575.575 0 011.148 0 2.708 2.708 0 01-2.703 2.699z"/><path fill-rule="evenodd" clip-rule="evenodd" d="M.422 15.069c0 5.005 4.072 9.077 9.078 9.077 5.006 0 9.078-4.071 9.08-9.077C18.58 8.237 10.237.795 9.881.48a.573.573 0 00-.74-.016C8.784.752.422 7.592.422 15.069zM9.484 1.678zm0 0c-1.62 1.42-7.916 7.324-7.916 13.39 0 4.373 3.557 7.93 7.93 7.93 4.373 0 7.93-3.557 7.93-7.93.001-5.543-6.338-11.876-7.944-13.39z"/><path d="M9.5 24.146l.112-.223-.053-.026H9.5v.25zm0 0l-.112.224.053.027h.06v-.25zm9.08-9.077h.25-.25zM9.881.48l-.166.187.166-.187zm-.74-.016l.156.195h.001L9.141.464zm.343 1.212l.165.189.502-.439h-.667v.25zm0 0v-.25h-.629l.457.432.172-.182zm7.943 13.391h-.25.25zM9.5 23.897c-4.868 0-8.828-3.96-8.828-8.828h-.5c0 5.143 4.184 9.327 9.328 9.327v-.5zm.113.026l-.225.447.225-.447zm8.717-8.854c-.002 4.867-3.962 8.828-8.83 8.828v.5c5.144 0 9.328-4.184 9.33-9.328h-.5zM9.716.668c.172.152 2.334 2.08 4.45 4.815 2.125 2.747 4.164 6.258 4.164 9.586h.5c0-3.505-2.132-7.13-4.268-9.891C12.418 2.406 10.23.455 10.047.293l-.331.375zM9.298.659c.123-.1.3-.095.417.009l.332-.374A.823.823 0 008.984.27l.314.388zM.672 15.07c0-3.652 2.046-7.175 4.171-9.843C6.963 2.566 9.126.797 9.297.66L8.984.27c-.186.15-2.381 1.944-4.532 4.645C2.306 7.608.172 11.244.172 15.069h.5zM9.32 1.489l.328.377-.328-.377zm.164.438v-.5.5zm.172-.431l-.344.363.344-.363zm-.337-.006c-.816.716-2.81 2.56-4.601 4.992-1.787 2.426-3.4 5.472-3.4 8.586h.5c0-2.953 1.536-5.892 3.302-8.29C6.882 4.389 8.846 2.57 9.65 1.867l-.33-.376zm-8 13.578c0 4.511 3.668 8.18 8.179 8.18v-.5c-4.235 0-7.68-3.445-7.68-7.68h-.5zm8.179 8.18c4.51 0 8.18-3.67 8.18-8.18h-.5c0 4.235-3.445 7.68-7.68 7.68v.5zm8.18-8.18c0-2.854-1.625-5.879-3.417-8.353-1.798-2.483-3.797-4.457-4.605-5.22l-.343.365c.797.751 2.77 2.701 4.543 5.149 1.78 2.457 3.322 5.37 3.321 8.059h.5z"/></symbol><symbol viewBox="0 0 26 24" id="slider-wind" xmlns="http://www.w3.org/2000/svg"><path d="M17.334 8.71H0v2.166h17.334A5.423 5.423 0 0022.75 5.46 5.423 5.423 0 0017.334.044a5.423 5.423 0 00-5.417 5.416h2.167a3.254 3.254 0 013.25-3.25 3.254 3.254 0 013.25 3.25 3.254 3.254 0 01-3.25 3.25zm3.25 4.334H0v2.166h20.584a3.254 3.254 0 013.25 3.25 3.254 3.254 0 01-3.25 3.25 3.254 3.254 0 01-3.25-3.25h-2.167a5.423 5.423 0 005.417 5.416A5.423 5.423 0 0026 18.46a5.423 5.423 0 00-5.416-5.416z"/></symbol><symbol viewBox="0 0 22 22" id="star" xmlns="http://www.w3.org/2000/svg"><path d="M10.954 0l3.196 7.59 7.85.864-5.934 5.476L17.801 22l-6.846-4.227L4.198 22l1.735-8.07L0 8.454l7.85-.864L10.954 0z"/></symbol></svg>